ffmpeg version 4.1.1-0york1~16.04 Copyright (c) 2000-2019 the FFmpeg developers
  built with gcc 5.4.0 (Ubuntu 5.4.0-6ubuntu1~16.04.11) 20160609
  configuration: --prefix=/usr --extra-version='0york1~16.04' --toolchain=hardened --libdir=/usr/lib/x86_64-linux-gnu --incdir=/usr/include/x86_64-linux-gnu --arch=amd64 --enable-gpl --disable-stripping --enable-avresample --disable-filter=resample --enable-avisynth --enable-gnutls --enable-ladspa --enable-libaom --enable-libass --enable-libbluray --enable-libbs2b --enable-libcaca --enable-libcdio --enable-libcodec2 --enable-libflite --enable-libfontconfig --enable-libfreetype --enable-libfribidi --enable-libgme --enable-libgsm --enable-libjack --enable-libmp3lame --enable-libmysofa --enable-libopenjpeg --enable-libopenmpt --enable-libopus --enable-libpulse --enable-librsvg --enable-librubberband --enable-libshine --enable-libsnappy --enable-libsoxr --enable-libspeex --enable-libssh --enable-libtheora --enable-libtwolame --enable-libvidstab --enable-libvorbis --enable-libvpx --enable-libwavpack --enable-libwebp --enable-libx265 --enable-libxml2 --enable-libxvid --enable-libzmq --enable-libzvbi --enable-lv2 --enable-omx --enable-openal --enable-opengl --enable-sdl2 --enable-nonfree --enable-libfdk-aac --enable-libdc1394 --enable-libdrm --enable-libiec61883 --enable-chromaprint --enable-frei0r --enable-libx264 --enable-shared
  libavutil      56. 22.100 / 56. 22.100
  libavcodec     58. 35.100 / 58. 35.100
  libavformat    58. 20.100 / 58. 20.100
  libavdevice    58.  5.100 / 58.  5.100
  libavfilter     7. 40.101 /  7. 40.101
  libavresample   4.  0.  0 /  4.  0.  0
  libswscale      5.  3.100 /  5.  3.100
  libswresample   3.  3.100 /  3.  3.100
  libpostproc    55.  3.100 / 55.  3.100
Input #0, mov,mp4,m4a,3gp,3g2,mj2, from '/home/gdo/html/playtube//upload/videos/2019/03/l7y2udYU6rCsvbyIR8JW_27_60acd281b622a1c78055227f57f4de2f_video.mp4':
  Metadata:
    major_brand     : mp42
    minor_version   : 0
    compatible_brands: isommp42
    creation_time   : 2018-09-25T01:24:15.000000Z
  Duration: 00:03:02.83, start: 0.000000, bitrate: 701 kb/s
    Stream #0:0(und): Video: h264 (Main) (avc1 / 0x31637661), yuv420p(tv, bt709), 1280x720 [SAR 1:1 DAR 16:9], 571 kb/s, 29.78 fps, 29.75 tbr, 90k tbn, 59.57 tbc (default)
    Metadata:
      creation_time   : 2018-09-25T01:24:15.000000Z
      handler_name    : ISO Media file produced by Google Inc. Created on: 09/24/2018.
    Stream #0:1(und): Audio: aac (LC) (mp4a / 0x6134706D), 44100 Hz, stereo, fltp, 125 kb/s (default)
    Metadata:
      creation_time   : 2018-09-25T01:24:15.000000Z
      handler_name    : ISO Media file produced by Google Inc. Created on: 09/24/2018.
Stream mapping:
  Stream #0:0 -> #0:0 (h264 (native) -> h264 (libx264))
  Stream #0:1 -> #0:1 (aac (native) -> aac (native))
Press [q] to stop, [?] for help
[libx264 @ 0x564009a05840] using SAR=1/1
[libx264 @ 0x564009a05840] using cpu capabilities: MMX2 SSE2Fast SSSE3 SSE4.2 AVX FMA3 BMI2 AVX2
[libx264 @ 0x564009a05840] profile High, level 3.1
[libx264 @ 0x564009a05840] 264 - core 155 r2917 0a84d98 - H.264/MPEG-4 AVC codec - Copyleft 2003-2018 - http://www.videolan.org/x264.html - options: cabac=1 ref=2 deblock=1:0:0 analyse=0x3:0x113 me=hex subme=6 psy=1 psy_rd=1.00:0.00 mixed_ref=1 me_range=16 chroma_me=1 trellis=1 8x8dct=1 cqm=0 deadzone=21,11 fast_pskip=1 chroma_qp_offset=-2 threads=1 lookahead_threads=1 sliced_threads=0 nr=0 decimate=1 interlaced=0 bluray_compat=0 constrained_intra=0 bframes=3 b_pyramid=2 b_adapt=1 b_bias=0 direct=1 weightb=1 open_gop=0 weightp=1 keyint=250 keyint_min=25 scenecut=40 intra_refresh=0 rc_lookahead=30 rc=crf mbtree=1 crf=26.0 qcomp=0.60 qpmin=0 qpmax=69 qpstep=4 ip_ratio=1.40 aq=1:1.00
Output #0, mp4, to '/home/gdo/html/playtube//upload/videos/2019/03/l7y2udYU6rCsvbyIR8JW_27_60acd281b622a1c78055227f57f4de2f_video_720p_converted.mp4':
  Metadata:
    major_brand     : mp42
    minor_version   : 0
    compatible_brands: isommp42
    encoder         : Lavf58.20.100
    Stream #0:0(und): Video: h264 (libx264) (avc1 / 0x31637661), yuv420p(progressive), 1280x720 [SAR 1:1 DAR 16:9], q=-1--1, 29.75 fps, 15232 tbn, 29.75 tbc (default)
    Metadata:
      creation_time   : 2018-09-25T01:24:15.000000Z
      handler_name    : ISO Media file produced by Google Inc. Created on: 09/24/2018.
      encoder         : Lavc58.35.100 libx264
    Side data:
      cpb: bitrate max/min/avg: 0/0/0 buffer size: 0 vbv_delay: -1
    Stream #0:1(und): Audio: aac (LC) (mp4a / 0x6134706D), 44100 Hz, stereo, fltp, 128 kb/s (default)
    Metadata:
      creation_time   : 2018-09-25T01:24:15.000000Z
      handler_name    : ISO Media file produced by Google Inc. Created on: 09/24/2018.
      encoder         : Lavc58.35.100 aac
frame=   27 fps=0.0 q=0.0 size=       0kB time=00:00:00.46 bitrate=   0.8kbits/s speed=0.882x    frame=   33 fps= 31 q=32.0 size=       0kB time=00:00:00.92 bitrate=   0.4kbits/s speed=0.881x    frame=   40 fps= 25 q=32.0 size=       0kB time=00:00:00.92 bitrate=   0.4kbits/s speed=0.591x    frame=   48 fps= 23 q=32.0 size=       0kB time=00:00:01.41 bitrate=   0.3kbits/s speed=0.677x    frame=   57 fps= 22 q=32.0 size=       0kB time=00:00:01.90 bitrate=   0.2kbits/s speed=0.726x    frame=   66 fps= 21 q=32.0 size=       0kB time=00:00:01.90 bitrate=   0.2kbits/s speed=0.598x    frame=   76 fps= 20 q=32.0 size=       0kB time=00:00:02.36 bitrate=   0.2kbits/s speed=0.639x    frame=   86 fps= 20 q=32.0 size=       0kB time=00:00:02.83 bitrate=   0.1kbits/s speed=0.667x    frame=   95 fps= 20 q=32.0 size=     256kB time=00:00:02.83 bitrate= 740.4kbits/s speed=0.591x    frame=  103 fps= 19 q=32.0 size=     256kB time=00:00:03.29 bitrate= 636.2kbits/s speed=0.619x    frame=  113 fps= 19 q=32.0 size=     256kB time=00:00:03.76 bitrate= 557.6kbits/s speed=0.642x    frame=  122 fps= 19 q=32.0 size=     256kB time=00:00:03.76 bitrate= 557.6kbits/s speed=0.588x    frame=  131 fps= 19 q=32.0 size=     256kB time=00:00:04.22 bitrate= 496.3kbits/s speed=0.608x    frame=  141 fps= 19 q=32.0 size=     256kB time=00:00:04.69 bitrate= 447.2kbits/s speed=0.627x    frame=  151 fps= 19 q=29.0 size=     512kB time=00:00:04.69 bitrate= 894.3kbits/s speed=0.587x    frame=  174 fps= 20 q=32.0 size=     512kB time=00:00:05.61 bitrate= 746.5kbits/s speed=0.661x    frame=  197 fps= 22 q=32.0 size=     512kB time=00:00:06.54 bitrate= 640.6kbits/s speed=0.728x    frame=  220 fps= 23 q=32.0 size=     512kB time=00:00:07.01 bitrate= 598.2kbits/s speed=0.738x    frame=  245 fps= 24 q=32.0 size=     512kB time=00:00:07.94 bitrate= 528.2kbits/s speed=0.792x    frame=  271 fps= 26 q=32.0 size=     512kB time=00:00:08.87 bitrate= 472.9kbits/s speed=0.842x    frame=  298 fps= 27 q=32.0 size=     512kB time=00:00:09.79 bitrate= 428.1kbits/s speed=0.887x    frame=  321 fps= 28 q=32.0 size=     512kB time=00:00:10.26 bitrate= 408.7kbits/s speed=0.888x    frame=  349 fps= 29 q=32.0 size=     512kB time=00:00:11.19 bitrate= 374.8kbits/s speed=0.928x    frame=  377 fps= 30 q=32.0 size=     512kB time=00:00:12.23 bitrate= 342.8kbits/s speed=0.974x    frame=  401 fps= 31 q=29.0 size=     512kB time=00:00:13.04 bitrate= 321.4kbits/s speed=0.998x    frame=  419 fps= 31 q=32.0 size=     512kB time=00:00:13.51 bitrate= 310.4kbits/s speed=0.992x    frame=  429 fps= 30 q=32.0 size=     768kB time=00:00:13.97 bitrate= 450.1kbits/s speed=0.985x    frame=  438 fps= 30 q=32.0 size=     768kB time=00:00:14.44 bitrate= 435.6kbits/s speed=0.982x    frame=  446 fps= 29 q=32.0 size=     768kB time=00:00:14.46 bitrate= 434.9kbits/s speed=0.951x    frame=  456 fps= 29 q=32.0 size=     768kB time=00:00:14.90 bitrate= 422.1kbits/s speed=0.947x    frame=  464 fps= 29 q=32.0 size=     768kB time=00:00:15.37 bitrate= 409.3kbits/s speed=0.946x    frame=  474 fps= 28 q=32.0 size=     768kB time=00:00:15.83 bitrate= 397.3kbits/s speed=0.945x    frame=  483 fps= 28 q=32.0 size=    1024kB time=00:00:15.83 bitrate= 529.7kbits/s speed=0.915x    frame=  492 fps= 28 q=32.0 size=    1024kB time=00:00:16.30 bitrate= 514.6kbits/s speed=0.915x    frame=  503 fps= 27 q=32.0 size=    1024kB time=00:00:16.76 bitrate= 500.4kbits/s speed=0.914x    frame=  513 fps= 27 q=32.0 size=    1024kB time=00:00:16.76 bitrate= 500.4kbits/s speed=0.889x    frame=  521 fps= 27 q=32.0 size=    1024kB time=00:00:17.22 bitrate= 486.9kbits/s speed=0.89x    frame=  531 fps= 27 q=32.0 size=    1024kB time=00:00:17.69 bitrate= 474.1kbits/s speed=0.89x    frame=  542 fps= 27 q=32.0 size=    1280kB time=00:00:17.69 bitrate= 592.7kbits/s speed=0.868x    frame=  553 fps= 26 q=32.0 size=    1280kB time=00:00:18.15 bitrate= 577.5kbits/s speed=0.869x    frame=  566 fps= 26 q=32.0 size=    1280kB time=00:00:18.62 bitrate= 563.1kbits/s speed=0.87x    frame=  578 fps= 26 q=32.0 size=    1280kB time=00:00:19.08 bitrate= 549.4kbits/s speed=0.871x    frame=  592 fps= 26 q=32.0 size=    1280kB time=00:00:19.55 bitrate= 536.3kbits/s speed=0.87x    frame=  604 fps= 26 q=32.0 size=    1280kB time=00:00:20.01 bitrate= 523.9kbits/s speed=0.87x    frame=  610 fps= 26 q=32.0 size=    1280kB time=00:00:20.01 bitrate= 523.9kbits/s speed=0.851x    frame=  618 fps= 26 q=32.0 size=    1536kB time=00:00:20.48 bitrate= 614.4kbits/s speed=0.851x    frame=  626 fps= 25 q=32.0 size=    1536kB time=00:00:20.48 bitrate= 614.4kbits/s speed=0.832x    frame=  634 fps= 25 q=32.0 size=    1536kB time=00:00:20.94 bitrate= 600.8kbits/s speed=0.833x    frame=  644 fps= 25 q=32.0 size=    1536kB time=00:00:21.40 bitrate= 587.8kbits/s speed=0.834x    frame=  654 fps= 25 q=32.0 size=    1536kB time=00:00:21.40 bitrate= 587.8kbits/s speed=0.816x    frame=  665 fps= 25 q=32.0 size=    1536kB time=00:00:21.87 bitrate= 575.3kbits/s speed=0.818x    frame=  673 fps= 25 q=32.0 size=    1536kB time=00:00:22.33 bitrate= 563.3kbits/s speed=0.819x    frame=  682 fps= 25 q=32.0 size=    1536kB time=00:00:22.36 bitrate= 562.7kbits/s speed=0.804x    frame=  692 fps= 24 q=32.0 size=    1792kB time=00:00:22.80 bitrate= 643.8kbits/s speed=0.805x    frame=  701 fps= 24 q=32.0 size=    1792kB time=00:00:23.26 bitrate= 631.0kbits/s speed=0.807x    frame=  711 fps= 24 q=32.0 size=    1792kB time=00:00:23.73 bitrate= 618.6kbits/s speed=0.808x    frame=  719 fps= 24 q=32.0 size=    1792kB time=00:00:23.73 bitrate= 618.6kbits/s speed=0.793x    frame=  729 fps= 24 q=32.0 size=    1792kB time=00:00:24.19 bitrate= 606.8kbits/s speed=0.795x    frame=  739 fps= 24 q=32.0 size=    1792kB time=00:00:24.65 bitrate= 595.3kbits/s speed=0.797x    frame=  748 fps= 24 q=32.0 size=    1792kB time=00:00:24.65 bitrate= 595.3kbits/s speed=0.783x    frame=  757 fps= 24 q=32.0 size=    2048kB time=00:00:25.12 bitrate= 667.8kbits/s speed=0.784x    frame=  765 fps= 23 q=32.0 size=    2048kB time=00:00:25.58 bitrate= 655.7kbits/s speed=0.786x    frame=  774 fps= 23 q=32.0 size=    2048kB time=00:00:25.58 bitrate= 655.7kbits/s speed=0.773x    frame=  783 fps= 23 q=32.0 size=    2048kB time=00:00:26.05 bitrate= 644.0kbits/s speed=0.775x    frame=  793 fps= 23 q=32.0 size=    2048kB time=00:00:26.51 bitrate= 632.7kbits/s speed=0.777x    frame=  802 fps= 23 q=32.0 size=    2048kB time=00:00:26.51 bitrate= 632.7kbits/s speed=0.764x    frame=  811 fps= 23 q=32.0 size=    2304kB time=00:00:26.98 bitrate= 699.5kbits/s speed=0.766x    frame=  823 fps= 23 q=32.0 size=    2304kB time=00:00:27.44 bitrate= 687.7kbits/s speed=0.767x    frame=  833 fps= 23 q=32.0 size=    2304kB time=00:00:27.44 bitrate= 687.7kbits/s speed=0.757x    frame=  842 fps= 23 q=32.0 size=    2304kB time=00:00:27.91 bitrate= 676.3kbits/s speed=0.758x    frame=  851 fps= 23 q=32.0 size=    2304kB time=00:00:28.37 bitrate= 665.2kbits/s speed=0.76x    frame=  859 fps= 23 q=32.0 size=    2304kB time=00:00:28.37 bitrate= 665.2kbits/s speed=0.75x    frame=  866 fps= 23 q=32.0 size=    2304kB time=00:00:28.83 bitrate= 654.5kbits/s speed=0.752x    frame=  873 fps= 22 q=32.0 size=    2560kB time=00:00:28.83 bitrate= 727.2kbits/s speed=0.741x    frame=  881 fps= 22 q=32.0 size=    2560kB time=00:00:29.30 bitrate= 715.7kbits/s speed=0.742x    frame=  889 fps= 22 q=32.0 size=    2560kB time=00:00:29.30 bitrate= 715.7kbits/s speed=0.731x    frame=  898 fps= 22 q=32.0 size=    2560kB time=00:00:29.76 bitrate= 704.5kbits/s speed=0.733x    frame=  909 fps= 22 q=32.0 size=    2560kB time=00:00:30.23 bitrate= 693.7kbits/s speed=0.735x    frame=  917 fps= 22 q=32.0 size=    2816kB time=00:00:30.25 bitrate= 762.5kbits/s speed=0.726x    frame=  927 fps= 22 q=32.0 size=    2816kB time=00:00:30.69 bitrate= 751.5kbits/s speed=0.728x    frame=  941 fps= 22 q=32.0 size=    2816kB time=00:00:31.16 bitrate= 740.3kbits/s speed=0.729x    frame=  951 fps= 22 q=32.0 size=    2816kB time=00:00:31.62 bitrate= 729.4kbits/s speed=0.731x    frame=  962 fps= 22 q=32.0 size=    2816kB time=00:00:32.08 bitrate= 718.9kbits/s speed=0.733x    frame=  972 fps= 22 q=32.0 size=    2816kB time=00:00:32.55 bitrate= 708.6kbits/s speed=0.736x    frame=  980 fps= 22 q=32.0 size=    2816kB time=00:00:32.55 bitrate= 708.6kbits/s speed=0.727x    frame=  989 fps= 22 q=32.0 size=    3072kB time=00:00:33.01 bitrate= 762.2kbits/s speed=0.728x    frame=  998 fps= 22 q=32.0 size=    3072kB time=00:00:33.04 bitrate= 761.6kbits/s speed=0.721x    frame= 1010 fps= 22 q=32.0 size=    3072kB time=00:00:33.48 bitrate= 751.6kbits/s speed=0.722x    frame= 1021 fps= 22 q=32.0 size=    3072kB time=00:00:33.94 bitrate= 741.3kbits/s speed=0.724x    frame= 1031 fps= 22 q=32.0 size=    3072kB time=00:00:34.41 bitrate= 731.3kbits/s speed=0.725x    frame= 1040 fps= 22 q=32.0 size=    3072kB time=00:00:34.43 bitrate= 730.8kbits/s speed=0.718x    frame= 1051 fps= 22 q=32.0 size=    3328kB time=00:00:34.87 bitrate= 781.7kbits/s speed=0.719x    frame= 1061 fps= 22 q=32.0 size=    3328kB time=00:00:35.34 bitrate= 771.4kbits/s speed=0.721x    frame= 1072 fps= 22 q=32.0 size=    3328kB time=00:00:35.80 bitrate= 761.4kbits/s speed=0.723x    frame= 1084 fps= 22 q=32.0 size=    3328kB time=00:00:36.26 bitrate= 751.7kbits/s speed=0.724x    frame= 1098 fps= 22 q=32.0 size=    3328kB time=00:00:36.73 bitrate= 742.2kbits/s speed=0.726x    frame= 1110 fps= 22 q=32.0 size=    3328kB time=00:00:36.73 bitrate= 742.2kbits/s speed=0.719x    frame= 1123 fps= 22 q=32.0 size=    3328kB time=00:00:37.19 bitrate= 732.9kbits/s speed=0.72x    frame= 1136 fps= 22 q=32.0 size=    3328kB time=00:00:37.66 bitrate= 723.9kbits/s speed=0.722x    frame= 1148 fps= 22 q=32.0 size=    3584kB time=00:00:38.12 bitrate= 770.1kbits/s speed=0.724x    frame= 1159 fps= 22 q=32.0 size=    3584kB time=00:00:38.59 bitrate= 760.8kbits/s speed=0.726x    frame= 1171 fps= 22 q=32.0 size=    3584kB time=00:00:39.05 bitrate= 751.8kbits/s speed=0.727x    frame= 1183 fps= 22 q=32.0 size=    3584kB time=00:00:39.52 bitrate= 742.9kbits/s speed=0.728x    frame= 1194 fps= 22 q=32.0 size=    3584kB time=00:00:39.98 bitrate= 734.3kbits/s speed=0.729x    frame= 1205 fps= 22 q=32.0 size=    3584kB time=00:00:39.98 bitrate= 734.3kbits/s speed=0.722x    frame= 1216 fps= 22 q=32.0 size=    3840kB time=00:00:40.44 bitrate= 777.7kbits/s speed=0.724x    frame= 1226 fps= 22 q=32.0 size=    3840kB time=00:00:40.91 bitrate= 768.9kbits/s speed=0.725x    frame= 1237 fps= 22 q=32.0 size=    3840kB time=00:00:41.37 bitrate= 760.3kbits/s speed=0.726x    frame= 1247 fps= 22 q=32.0 size=    3840kB time=00:00:41.40 bitrate= 759.8kbits/s speed=0.72x    frame= 1259 fps= 22 q=32.0 size=    3840kB time=00:00:41.84 bitrate= 751.8kbits/s speed=0.721x    frame= 1270 fps= 22 q=32.0 size=    3840kB time=00:00:42.30 bitrate= 743.6kbits/s speed=0.723x    frame= 1280 fps= 22 q=32.0 size=    3840kB time=00:00:42.77 bitrate= 735.5kbits/s speed=0.724x    frame= 1291 fps= 22 q=32.0 size=    4096kB time=00:00:43.23 bitrate= 776.1kbits/s speed=0.726x    frame= 1301 fps= 22 q=32.0 size=    4096kB time=00:00:43.23 bitrate= 776.1kbits/s speed=0.72x    frame= 1310 fps= 22 q=32.0 size=    4096kB time=00:00:43.69 bitrate= 767.8kbits/s speed=0.721x    frame= 1320 fps= 22 q=32.0 size=    4096kB time=00:00:44.16 bitrate= 759.8kbits/s speed=0.723x    frame= 1329 fps= 22 q=32.0 size=    4096kB time=00:00:44.16 bitrate= 759.8kbits/s speed=0.717x    frame= 1338 fps= 22 q=32.0 size=    4096kB time=00:00:44.62 bitrate= 751.9kbits/s speed=0.718x    frame= 1347 fps= 21 q=32.0 size=    4096kB time=00:00:45.09 bitrate= 744.1kbits/s speed=0.719x    frame= 1356 fps= 21 q=32.0 size=    4352kB time=00:00:45.09 bitrate= 790.6kbits/s speed=0.714x    frame= 1364 fps= 21 q=32.0 size=    4352kB time=00:00:45.55 bitrate= 782.6kbits/s speed=0.715x    frame= 1372 fps= 21 q=32.0 size=    4352kB time=00:00:45.55 bitrate= 782.6kbits/s speed=0.708x    frame= 1380 fps= 21 q=32.0 size=    4352kB time=00:00:46.02 bitrate= 774.7kbits/s speed=0.709x    frame= 1390 fps= 21 q=32.0 size=    4352kB time=00:00:46.48 bitrate= 766.9kbits/s speed=0.711x    frame= 1398 fps= 21 q=32.0 size=    4608kB time=00:00:46.48 bitrate= 812.0kbits/s speed=0.705x    frame= 1407 fps= 21 q=32.0 size=    4608kB time=00:00:46.95 bitrate= 804.0kbits/s speed=0.706x    frame= 1415 fps= 21 q=32.0 size=    4608kB time=00:00:46.95 bitrate= 804.0kbits/s speed=0.701x    frame= 1425 fps= 21 q=32.0 size=    4608kB time=00:00:47.41 bitrate= 796.1kbits/s speed=0.702x    frame= 1435 fps= 21 q=32.0 size=    4608kB time=00:00:47.87 bitrate= 788.4kbits/s speed=0.704x    frame= 1445 fps= 21 q=32.0 size=    4608kB time=00:00:48.34 bitrate= 780.8kbits/s speed=0.705x    frame= 1453 fps= 21 q=32.0 size=    4864kB time=00:00:48.34 bitrate= 824.2kbits/s speed=0.699x    frame= 1461 fps= 21 q=32.0 size=    4864kB time=00:00:48.80 bitrate= 816.4kbits/s speed= 0.7x    frame= 1468 fps= 21 q=32.0 size=    4864kB time=00:00:49.17 bitrate= 810.2kbits/s speed= 0.7x    frame= 1477 fps= 21 q=32.0 size=    4864kB time=00:00:49.27 bitrate= 808.7kbits/s speed=0.697x    frame= 1484 fps= 21 q=32.0 size=    4864kB time=00:00:49.73 bitrate= 801.1kbits/s speed=0.698x    frame= 1494 fps= 21 q=32.0 size=    4864kB time=00:00:49.73 bitrate= 801.1kbits/s speed=0.693x    frame= 1505 fps= 21 q=32.0 size=    5120kB time=00:00:50.20 bitrate= 835.5kbits/s speed=0.695x    frame= 1517 fps= 21 q=32.0 size=    5120kB time=00:00:50.66 bitrate= 827.8kbits/s speed=0.696x    frame= 1531 fps= 21 q=32.0 size=    5120kB time=00:00:51.13 bitrate= 820.3kbits/s speed=0.697x    frame= 1546 fps= 21 q=32.0 size=    5120kB time=00:00:51.59 bitrate= 812.9kbits/s speed=0.699x    frame= 1559 fps= 21 q=32.0 size=    5120kB time=00:00:52.05 bitrate= 805.7kbits/s speed= 0.7x    frame= 1568 fps= 21 q=32.0 size=    5120kB time=00:00:52.52 bitrate= 798.6kbits/s speed=0.702x    frame= 1577 fps= 21 q=32.0 size=    5120kB time=00:00:52.52 bitrate= 798.6kbits/s speed=0.697x    frame= 1585 fps= 21 q=32.0 size=    5376kB time=00:00:52.98 bitrate= 831.1kbits/s speed=0.698x    frame= 1594 fps= 21 q=32.0 size=    5376kB time=00:00:52.98 bitrate= 831.1kbits/s speed=0.693x    frame= 1603 fps= 21 q=32.0 size=    5376kB time=00:00:53.45 bitrate= 823.9kbits/s speed=0.694x    frame= 1612 fps= 21 q=32.0 size=    5376kB time=00:00:53.91 bitrate= 816.8kbits/s speed=0.695x    frame= 1621 fps= 21 q=32.0 size=    5376kB time=00:00:53.91 bitrate= 816.8kbits/s speed=0.691x    frame= 1629 fps= 21 q=32.0 size=    5376kB time=00:00:54.38 bitrate= 809.9kbits/s speed=0.692x    frame= 1638 fps= 21 q=32.0 size=    5632kB time=00:00:54.84 bitrate= 841.2kbits/s speed=0.693x    frame= 1647 fps= 21 q=32.0 size=    5632kB time=00:00:54.84 bitrate= 841.2kbits/s speed=0.689x    frame= 1656 fps= 21 q=32.0 size=    5632kB time=00:00:55.30 bitrate= 834.2kbits/s speed=0.69x    frame= 1664 fps= 21 q=32.0 size=    5632kB time=00:00:55.30 bitrate= 834.2kbits/s speed=0.685x    frame= 1674 fps= 21 q=32.0 size=    5632kB time=00:00:55.77 bitrate= 827.2kbits/s speed=0.686x    frame= 1681 fps= 21 q=32.0 size=    5888kB time=00:00:56.23 bitrate= 857.7kbits/s speed=0.687x    frame= 1690 fps= 21 q=32.0 size=    5888kB time=00:00:56.23 bitrate= 857.7kbits/s speed=0.683x    frame= 1698 fps= 20 q=32.0 size=    5888kB time=00:00:56.70 bitrate= 850.7kbits/s speed=0.684x    frame= 1706 fps= 20 q=32.0 size=    5888kB time=00:00:57.16 bitrate= 843.7kbits/s speed=0.686x    frame= 1715 fps= 20 q=32.0 size=    5888kB time=00:00:57.16 bitrate= 843.7kbits/s speed=0.681x    frame= 1722 fps= 20 q=32.0 size=    5888kB time=00:00:57.63 bitrate= 836.9kbits/s speed=0.682x    frame= 1729 fps= 20 q=32.0 size=    5888kB time=00:00:57.63 bitrate= 836.9kbits/s speed=0.678x    frame= 1736 fps= 20 q=32.0 size=    6144kB time=00:00:58.09 bitrate= 866.4kbits/s speed=0.679x    frame= 1743 fps= 20 q=32.0 size=    6144kB time=00:00:58.09 bitrate= 866.4kbits/s speed=0.675x    frame= 1751 fps= 20 q=32.0 size=    6144kB time=00:00:58.56 bitrate= 859.5kbits/s speed=0.676x    frame= 1759 fps= 20 q=32.0 size=    6144kB time=00:00:58.56 bitrate= 859.5kbits/s speed=0.672x    frame= 1766 fps= 20 q=32.0 size=    6144kB time=00:00:59.02 bitrate= 852.7kbits/s speed=0.673x    frame= 1773 fps= 20 q=32.0 size=    6400kB time=00:00:59.02 bitrate= 888.3kbits/s speed=0.669x    frame= 1783 fps= 20 q=32.0 size=    6400kB time=00:00:59.48 bitrate= 881.3kbits/s speed=0.671x    frame= 1792 fps= 20 q=32.0 size=    6400kB time=00:00:59.95 bitrate= 874.5kbits/s speed=0.672x    frame= 1801 fps= 20 q=32.0 size=    6400kB time=00:00:59.95 bitrate= 874.5kbits/s speed=0.668x    frame= 1809 fps= 20 q=32.0 size=    6400kB time=00:01:00.41 bitrate= 867.8kbits/s speed=0.669x    frame= 1817 fps= 20 q=32.0 size=    6400kB time=00:01:00.88 bitrate= 861.2kbits/s speed=0.671x    frame= 1826 fps= 20 q=32.0 size=    6656kB time=00:01:00.88 bitrate= 895.6kbits/s speed=0.666x    frame= 1833 fps= 20 q=32.0 size=    6656kB time=00:01:01.34 bitrate= 888.8kbits/s speed=0.668x    frame= 1842 fps= 20 q=32.0 size=    6656kB time=00:01:01.34 bitrate= 888.8kbits/s speed=0.664x    frame= 1851 fps= 20 q=32.0 size=    6656kB time=00:01:01.81 bitrate= 882.1kbits/s speed=0.665x    frame= 1860 fps= 20 q=32.0 size=    6656kB time=00:01:02.27 bitrate= 875.6kbits/s speed=0.666x    frame= 1871 fps= 20 q=32.0 size=    6656kB time=00:01:02.27 bitrate= 875.6kbits/s speed=0.663x    frame= 1882 fps= 20 q=32.0 size=    6656kB time=00:01:02.74 bitrate= 869.1kbits/s speed=0.664x    frame= 1893 fps= 20 q=32.0 size=    6912kB time=00:01:03.20 bitrate= 895.9kbits/s speed=0.665x    frame= 1903 fps= 20 q=32.0 size=    6912kB time=00:01:03.66 bitrate= 889.3kbits/s dup=0 drop=1 speed=0.666x    frame= 1915 fps= 20 q=32.0 size=    6912kB time=00:01:04.13 bitrate= 882.9kbits/s dup=0 drop=1 speed=0.667x    frame= 1925 fps= 20 q=32.0 size=    6912kB time=00:01:04.15 bitrate= 882.6kbits/s dup=0 drop=1 speed=0.664x    frame= 1937 fps= 20 q=32.0 size=    6912kB time=00:01:04.59 bitrate= 876.6kbits/s dup=0 drop=1 speed=0.665x    frame= 1949 fps= 20 q=32.0 size=    6912kB time=00:01:05.06 bitrate= 870.3kbits/s dup=0 drop=1 speed=0.666x    frame= 1959 fps= 20 q=32.0 size=    7168kB time=00:01:05.52 bitrate= 896.1kbits/s dup=0 drop=1 speed=0.667x    frame= 1969 fps= 20 q=32.0 size=    7168kB time=00:01:05.99 bitrate= 889.8kbits/s dup=0 drop=1 speed=0.669x    frame= 1979 fps= 20 q=32.0 size=    7168kB time=00:01:06.01 bitrate= 889.5kbits/s dup=0 drop=1 speed=0.665x    frame= 1990 fps= 20 q=32.0 size=    7168kB time=00:01:06.45 bitrate= 883.6kbits/s dup=0 drop=1 speed=0.666x    frame= 2001 fps= 20 q=32.0 size=    7168kB time=00:01:06.91 bitrate= 877.5kbits/s dup=0 drop=1 speed=0.668x    frame= 2011 fps= 20 q=32.0 size=    7424kB time=00:01:07.38 bitrate= 902.6kbits/s dup=0 drop=1 speed=0.669x    frame= 2021 fps= 20 q=32.0 size=    7424kB time=00:01:07.40 bitrate= 902.2kbits/s dup=0 drop=1 speed=0.665x    frame= 2033 fps= 20 q=32.0 size=    7424kB time=00:01:07.84 bitrate= 896.4kbits/s dup=0 drop=1 speed=0.666x    frame= 2044 fps= 20 q=32.0 size=    7424kB time=00:01:08.31 bitrate= 890.3kbits/s dup=0 drop=1 speed=0.667x    frame= 2056 fps= 20 q=32.0 size=    7424kB time=00:01:08.77 bitrate= 884.3kbits/s dup=0 drop=1 speed=0.668x    frame= 2069 fps= 20 q=32.0 size=    7424kB time=00:01:09.24 bitrate= 878.3kbits/s dup=0 drop=1 speed=0.669x    frame= 2082 fps= 20 q=32.0 size=    7680kB time=00:01:09.70 bitrate= 902.6kbits/s dup=0 drop=1 speed=0.671x    frame= 2097 fps= 20 q=32.0 size=    7680kB time=00:01:10.17 bitrate= 896.6kbits/s dup=0 drop=1 speed=0.671x    frame= 2105 fps= 20 q=32.0 size=    7680kB time=00:01:10.19 bitrate= 896.3kbits/s dup=0 drop=1 speed=0.668x    frame= 2116 fps= 20 q=32.0 size=    7680kB time=00:01:10.63 bitrate= 890.7kbits/s dup=0 drop=1 speed=0.669x    frame= 2127 fps= 20 q=32.0 size=    7680kB time=00:01:11.09 bitrate= 884.9kbits/s dup=0 drop=1 speed=0.67x    frame= 2139 fps= 20 q=32.0 size=    7680kB time=00:01:11.56 bitrate= 879.1kbits/s dup=0 drop=1 speed=0.671x    frame= 2151 fps= 20 q=32.0 size=    7680kB time=00:01:12.02 bitrate= 873.5kbits/s dup=0 drop=1 speed=0.672x    frame= 2161 fps= 20 q=32.0 size=    7936kB time=00:01:12.05 bitrate= 902.3kbits/s dup=0 drop=1 speed=0.669x    frame= 2174 fps= 20 q=32.0 size=    7936kB time=00:01:12.49 bitrate= 896.8kbits/s dup=0 drop=1 speed=0.67x    frame= 2186 fps= 20 q=32.0 size=    7936kB time=00:01:12.95 bitrate= 891.1kbits/s dup=0 drop=1 speed=0.671x    frame= 2198 fps= 20 q=32.0 size=    7936kB time=00:01:13.42 bitrate= 885.5kbits/s dup=0 drop=1 speed=0.672x    frame= 2210 fps= 20 q=32.0 size=    7936kB time=00:01:13.88 bitrate= 879.9kbits/s dup=0 drop=1 speed=0.673x    frame= 2221 fps= 20 q=32.0 size=    7936kB time=00:01:14.35 bitrate= 874.4kbits/s dup=0 drop=1 speed=0.674x    frame= 2233 fps= 20 q=32.0 size=    7936kB time=00:01:14.81 bitrate= 869.0kbits/s dup=0 drop=1 speed=0.675x    frame= 2244 fps= 20 q=32.0 size=    8192kB time=00:01:15.27 bitrate= 891.5kbits/s dup=0 drop=1 speed=0.676x    frame= 2256 fps= 20 q=32.0 size=    8192kB time=00:01:15.27 bitrate= 891.5kbits/s dup=0 drop=1 speed=0.673x    frame= 2267 fps= 20 q=32.0 size=    8192kB time=00:01:15.74 bitrate= 886.0kbits/s dup=0 drop=1 speed=0.674x    frame= 2279 fps= 20 q=32.0 size=    8192kB time=00:01:16.20 bitrate= 880.6kbits/s dup=0 drop=1 speed=0.675x    frame= 2290 fps= 20 q=32.0 size=    8192kB time=00:01:16.67 bitrate= 875.3kbits/s dup=0 drop=1 speed=0.676x    frame= 2302 fps= 20 q=29.0 size=    8192kB time=00:01:17.13 bitrate= 870.0kbits/s dup=0 drop=1 speed=0.677x    frame= 2312 fps= 20 q=32.0 size=    8448kB time=00:01:17.13 bitrate= 897.2kbits/s dup=0 drop=1 speed=0.674x    frame= 2323 fps= 20 q=32.0 size=    8448kB time=00:01:17.60 bitrate= 891.8kbits/s dup=0 drop=1 speed=0.675x    frame= 2332 fps= 20 q=32.0 size=    8448kB time=00:01:18.06 bitrate= 886.5kbits/s dup=0 drop=1 speed=0.676x    frame= 2342 fps= 20 q=32.0 size=    8448kB time=00:01:18.52 bitrate= 881.3kbits/s dup=0 drop=1 speed=0.677x    frame= 2350 fps= 20 q=32.0 size=    8448kB time=00:01:18.52 bitrate= 881.3kbits/s dup=0 drop=1 speed=0.674x    frame= 2358 fps= 20 q=32.0 size=    8448kB time=00:01:18.99 bitrate= 876.1kbits/s dup=0 drop=1 speed=0.675x    frame= 2366 fps= 20 q=32.0 size=    8448kB time=00:01:18.99 bitrate= 876.1kbits/s dup=0 drop=1 speed=0.672x    frame= 2376 fps= 20 q=32.0 size=    8704kB time=00:01:19.45 bitrate= 897.4kbits/s dup=0 drop=1 speed=0.673x    frame= 2386 fps= 20 q=32.0 size=    8704kB time=00:01:19.92 bitrate= 892.2kbits/s dup=0 drop=1 speed=0.674x    frame= 2399 fps= 20 q=32.0 size=    8704kB time=00:01:20.38 bitrate= 887.0kbits/s dup=0 drop=1 speed=0.675x    frame= 2412 fps= 20 q=32.0 size=    8704kB time=00:01:20.85 bitrate= 881.9kbits/s dup=0 drop=1 speed=0.676x    frame= 2426 fps= 20 q=32.0 size=    8704kB time=00:01:21.31 bitrate= 876.9kbits/s dup=0 drop=1 speed=0.677x    frame= 2437 fps= 20 q=32.0 size=    8704kB time=00:01:21.78 bitrate= 871.9kbits/s dup=0 drop=1 speed=0.677x    frame= 2447 fps= 20 q=32.0 size=    8704kB time=00:01:21.78 bitrate= 871.9kbits/s dup=0 drop=1 speed=0.674x    frame= 2457 fps= 20 q=32.0 size=    8960kB time=00:01:22.24 bitrate= 892.5kbits/s dup=0 drop=1 speed=0.675x    frame= 2467 fps= 20 q=32.0 size=    8960kB time=00:01:22.70 bitrate= 887.5kbits/s dup=0 drop=1 speed=0.676x    frame= 2477 fps= 20 q=32.0 size=    8960kB time=00:01:22.70 bitrate= 887.5kbits/s dup=0 drop=1 speed=0.673x    frame= 2490 fps= 20 q=32.0 size=    8960kB time=00:01:23.17 bitrate= 882.5kbits/s dup=0 drop=1 speed=0.674x    frame= 2503 fps= 20 q=32.0 size=    8960kB time=00:01:23.63 bitrate= 877.6kbits/s dup=0 drop=1 speed=0.675x    frame= 2515 fps= 20 q=32.0 size=    8960kB time=00:01:24.10 bitrate= 872.8kbits/s dup=0 drop=1 speed=0.676x    frame= 2527 fps= 20 q=32.0 size=    9216kB time=00:01:24.56 bitrate= 892.8kbits/s dup=0 drop=1 speed=0.676x    frame= 2539 fps= 20 q=32.0 size=    9216kB time=00:01:25.03 bitrate= 887.9kbits/s dup=0 drop=1 speed=0.677x    frame= 2550 fps= 20 q=32.0 size=    9216kB time=00:01:25.49 bitrate= 883.1kbits/s dup=0 drop=1 speed=0.678x    frame= 2561 fps= 20 q=32.0 size=    9216kB time=00:01:25.49 bitrate= 883.1kbits/s dup=0 drop=1 speed=0.675x    frame= 2568 fps= 20 q=32.0 size=    9216kB time=00:01:25.96 bitrate= 878.3kbits/s dup=0 drop=1 speed=0.676x    frame= 2577 fps= 20 q=32.0 size=    9216kB time=00:01:26.42 bitrate= 873.6kbits/s dup=0 drop=1 speed=0.677x    frame= 2585 fps= 20 q=32.0 size=    9216kB time=00:01:26.42 bitrate= 873.6kbits/s dup=0 drop=1 speed=0.674x    frame= 2594 fps= 20 q=32.0 size=    9216kB time=00:01:26.88 bitrate= 868.9kbits/s dup=0 drop=1 speed=0.675x    frame= 2603 fps= 20 q=32.0 size=    9472kB time=00:01:26.91 bitrate= 892.8kbits/s dup=0 drop=1 speed=0.672x    frame= 2611 fps= 20 q=32.0 size=    9472kB time=00:01:27.35 bitrate= 888.3kbits/s dup=0 drop=1 speed=0.673x    frame= 2619 fps= 20 q=32.0 size=    9472kB time=00:01:27.81 bitrate= 883.6kbits/s dup=0 drop=1 speed=0.674x    frame= 2627 fps= 20 q=32.0 size=    9472kB time=00:01:27.81 bitrate= 883.6kbits/s dup=0 drop=1 speed=0.671x    frame= 2635 fps= 20 q=32.0 size=    9472kB time=00:01:28.28 bitrate= 878.9kbits/s dup=0 drop=1 speed=0.672x    frame= 2643 fps= 20 q=32.0 size=    9472kB time=00:01:28.28 bitrate= 878.9kbits/s dup=0 drop=1 speed=0.669x    frame= 2652 fps= 20 q=32.0 size=    9472kB time=00:01:28.74 bitrate= 874.3kbits/s dup=0 drop=1 speed=0.67x    frame= 2662 fps= 20 q=32.0 size=    9728kB time=00:01:29.21 bitrate= 893.3kbits/s dup=0 drop=1 speed=0.671x    frame= 2671 fps= 20 q=32.0 size=    9728kB time=00:01:29.21 bitrate= 893.3kbits/s dup=0 drop=1 speed=0.668x    frame= 2680 fps= 20 q=32.0 size=    9728kB time=00:01:29.67 bitrate= 888.7kbits/s dup=0 drop=1 speed=0.669x    frame= 2689 fps= 20 q=32.0 size=    9728kB time=00:01:30.13 bitrate= 884.1kbits/s dup=0 drop=1 speed=0.67x    frame= 2698 fps= 20 q=32.0 size=    9728kB time=00:01:30.13 bitrate= 884.1kbits/s dup=0 drop=1 speed=0.667x    frame= 2708 fps= 20 q=32.0 size=    9728kB time=00:01:30.60 bitrate= 879.6kbits/s dup=0 drop=1 speed=0.668x    frame= 2716 fps= 20 q=32.0 size=    9728kB time=00:01:31.06 bitrate= 875.1kbits/s dup=0 drop=1 speed=0.669x    frame= 2725 fps= 20 q=32.0 size=    9728kB time=00:01:31.06 bitrate= 875.1kbits/s dup=0 drop=1 speed=0.667x    frame= 2734 fps= 20 q=32.0 size=    9728kB time=00:01:31.53 bitrate= 870.6kbits/s dup=0 drop=1 speed=0.667x    frame= 2742 fps= 20 q=32.0 size=    9728kB time=00:01:31.99 bitrate= 866.2kbits/s dup=0 drop=1 speed=0.668x    frame= 2749 fps= 20 q=32.0 size=    9984kB time=00:01:31.99 bitrate= 889.0kbits/s dup=0 drop=1 speed=0.666x    frame= 2757 fps= 20 q=32.0 size=    9984kB time=00:01:32.46 bitrate= 884.6kbits/s dup=0 drop=1 speed=0.666x    frame= 2767 fps= 20 q=32.0 size=    9984kB time=00:01:32.46 bitrate= 884.6kbits/s dup=0 drop=1 speed=0.664x    frame= 2776 fps= 20 q=32.0 size=    9984kB time=00:01:32.92 bitrate= 880.2kbits/s dup=0 drop=1 speed=0.665x    frame= 2788 fps= 20 q=32.0 size=    9984kB time=00:01:33.39 bitrate= 875.8kbits/s dup=0 drop=1 speed=0.666x    frame= 2802 fps= 20 q=32.0 size=    9984kB time=00:01:33.85 bitrate= 871.4kbits/s dup=0 drop=2 speed=0.667x    frame= 2816 fps= 20 q=32.0 size=   10240kB time=00:01:34.31 bitrate= 889.4kbits/s dup=0 drop=2 speed=0.667x    frame= 2830 fps= 20 q=32.0 size=   10240kB time=00:01:34.78 bitrate= 885.0kbits/s dup=0 drop=2 speed=0.668x    frame= 2842 fps= 20 q=32.0 size=   10240kB time=00:01:35.24 bitrate= 880.7kbits/s dup=0 drop=2 speed=0.669x    frame= 2857 fps= 20 q=32.0 size=   10240kB time=00:01:35.71 bitrate= 876.4kbits/s dup=0 drop=2 speed=0.67x    frame= 2870 fps= 20 q=32.0 size=   10240kB time=00:01:36.17 bitrate= 872.2kbits/s dup=0 drop=2 speed=0.671x    frame= 2885 fps= 20 q=32.0 size=   10240kB time=00:01:36.64 bitrate= 868.0kbits/s dup=0 drop=2 speed=0.671x    frame= 2899 fps= 20 q=32.0 size=   10240kB time=00:01:37.10 bitrate= 863.9kbits/s dup=0 drop=2 speed=0.672x    frame= 2915 fps= 20 q=32.0 size=   10496kB time=00:01:37.57 bitrate= 881.2kbits/s dup=0 drop=2 speed=0.673x    frame= 2926 fps= 20 q=32.0 size=   10496kB time=00:01:38.03 bitrate= 877.1kbits/s dup=0 drop=2 speed=0.673x    frame= 2932 fps= 20 q=32.0 size=   10496kB time=00:01:38.05 bitrate= 876.9kbits/s dup=0 drop=2 speed=0.671x    frame= 2941 fps= 20 q=32.0 size=   10496kB time=00:01:38.49 bitrate= 872.9kbits/s dup=0 drop=2 speed=0.671x    frame= 2946 fps= 20 q=32.0 size=   10496kB time=00:01:38.52 bitrate= 872.7kbits/s dup=0 drop=2 speed=0.669x    frame= 2955 fps= 20 q=32.0 size=   10496kB time=00:01:38.96 bitrate= 868.8kbits/s dup=0 drop=2 speed=0.669x    frame= 2960 fps= 20 q=32.0 size=   10496kB time=00:01:39.24 bitrate= 866.4kbits/s dup=0 drop=2 speed=0.669x    frame= 2967 fps= 20 q=32.0 size=   10496kB time=00:01:39.42 bitrate= 864.8kbits/s dup=0 drop=2 speed=0.668x    frame= 2974 fps= 20 q=32.0 size=   10496kB time=00:01:39.45 bitrate= 864.6kbits/s dup=0 drop=2 speed=0.665x    frame= 2983 fps= 20 q=32.0 size=   10496kB time=00:01:39.89 bitrate= 860.8kbits/s dup=0 drop=2 speed=0.665x    frame= 2991 fps= 20 q=32.0 size=   10496kB time=00:01:40.35 bitrate= 856.8kbits/s dup=0 drop=2 speed=0.666x    frame= 3005 fps= 20 q=32.0 size=   10752kB time=00:01:40.82 bitrate= 873.6kbits/s dup=0 drop=2 speed=0.667x    frame= 3019 fps= 20 q=32.0 size=   10752kB time=00:01:41.28 bitrate= 869.6kbits/s dup=0 drop=2 speed=0.668x    frame= 3030 fps= 20 q=29.0 size=   10752kB time=00:01:41.30 bitrate= 869.4kbits/s dup=0 drop=2 speed=0.666x    frame= 3044 fps= 20 q=32.0 size=   10752kB time=00:01:41.77 bitrate= 865.5kbits/s dup=0 drop=2 speed=0.666x    frame= 3058 fps= 20 q=32.0 size=   10752kB time=00:01:42.23 bitrate= 861.5kbits/s dup=0 drop=2 speed=0.667x    frame= 3072 fps= 20 q=32.0 size=   10752kB time=00:01:43.02 bitrate= 854.9kbits/s dup=0 drop=2 speed=0.67x    frame= 3085 fps= 20 q=32.0 size=   10752kB time=00:01:43.14 bitrate= 854.0kbits/s dup=0 drop=2 speed=0.669x    frame= 3097 fps= 20 q=32.0 size=   11008kB time=00:01:43.60 bitrate= 870.4kbits/s dup=0 drop=2 speed=0.669x    frame= 3110 fps= 20 q=32.0 size=   11008kB time=00:01:44.07 bitrate= 866.5kbits/s dup=0 drop=2 speed=0.67x    frame= 3122 fps= 20 q=32.0 size=   11008kB time=00:01:44.53 bitrate= 862.6kbits/s dup=0 drop=2 speed=0.671x    frame= 3132 fps= 20 q=32.0 size=   11008kB time=00:01:45.00 bitrate= 858.8kbits/s dup=0 drop=2 speed=0.672x    frame= 3147 fps= 20 q=32.0 size=   11008kB time=00:01:45.46 bitrate= 855.1kbits/s dup=0 drop=2 speed=0.672x    frame= 3162 fps= 20 q=32.0 size=   11008kB time=00:01:45.92 bitrate= 851.3kbits/s dup=0 drop=2 speed=0.673x    frame= 3178 fps= 20 q=32.0 size=   11008kB time=00:01:46.39 bitrate= 847.6kbits/s dup=0 drop=2 speed=0.674x    frame= 3191 fps= 20 q=32.0 size=   11264kB time=00:01:46.85 bitrate= 863.5kbits/s dup=0 drop=2 speed=0.674x    frame= 3205 fps= 20 q=32.0 size=   11264kB time=00:01:47.32 bitrate= 859.8kbits/s dup=0 drop=2 speed=0.675x    frame= 3220 fps= 20 q=32.0 size=   11264kB time=00:01:47.78 bitrate= 856.1kbits/s dup=0 drop=2 speed=0.676x    frame= 3234 fps= 20 q=32.0 size=   11264kB time=00:01:48.25 bitrate= 852.4kbits/s dup=0 drop=2 speed=0.677x    frame= 3253 fps= 20 q=32.0 size=   11264kB time=00:01:49.18 bitrate= 845.2kbits/s dup=0 drop=2 speed=0.68x    frame= 3268 fps= 20 q=32.0 size=   11264kB time=00:01:49.64 bitrate= 841.6kbits/s dup=0 drop=2 speed=0.681x    frame= 3283 fps= 20 q=32.0 size=   11264kB time=00:01:50.10 bitrate= 838.0kbits/s dup=0 drop=2 speed=0.681x    frame= 3293 fps= 20 q=32.0 size=   11520kB time=00:01:50.10 bitrate= 857.1kbits/s dup=0 drop=2 speed=0.679x    frame= 3303 fps= 20 q=32.0 size=   11520kB time=00:01:50.57 bitrate= 853.5kbits/s dup=0 drop=2 speed=0.68x    frame= 3312 fps= 20 q=32.0 size=   11520kB time=00:01:51.03 bitrate= 849.9kbits/s dup=0 drop=2 speed=0.68x    frame= 3321 fps= 20 q=32.0 size=   11520kB time=00:01:51.03 bitrate= 849.9kbits/s dup=0 drop=2 speed=0.678x    frame= 3331 fps= 20 q=32.0 size=   11776kB time=00:01:51.50 bitrate= 865.2kbits/s dup=0 drop=2 speed=0.679x    frame= 3343 fps= 20 q=32.0 size=   11776kB time=00:01:51.96 bitrate= 861.6kbits/s dup=0 drop=2 speed=0.679x    frame= 3354 fps= 20 q=32.0 size=   11776kB time=00:01:52.43 bitrate= 858.0kbits/s dup=0 drop=2 speed=0.68x    frame= 3366 fps= 20 q=32.0 size=   11776kB time=00:01:52.89 bitrate= 854.5kbits/s dup=0 drop=2 speed=0.681x    frame= 3383 fps= 20 q=32.0 size=   11776kB time=00:01:53.35 bitrate= 851.0kbits/s dup=0 drop=2 speed=0.682x    frame= 3405 fps= 20 q=32.0 size=   12032kB time=00:01:54.28 bitrate= 862.4kbits/s dup=0 drop=2 speed=0.685x    frame= 3427 fps= 20 q=32.0 size=   12032kB time=00:01:54.75 bitrate= 858.9kbits/s dup=0 drop=2 speed=0.686x    frame= 3447 fps= 21 q=32.0 size=   12032kB time=00:01:55.68 bitrate= 852.0kbits/s dup=0 drop=2 speed=0.689x    frame= 3458 fps= 21 q=32.0 size=   12032kB time=00:01:55.68 bitrate= 852.0kbits/s dup=0 drop=2 speed=0.687x    frame= 3472 fps= 21 q=32.0 size=   12032kB time=00:01:56.16 bitrate= 848.5kbits/s dup=0 drop=2 speed=0.687x    frame= 3483 fps= 21 q=32.0 size=   12032kB time=00:01:56.61 bitrate= 845.3kbits/s dup=0 drop=2 speed=0.688x    frame= 3493 fps= 21 q=32.0 size=   12032kB time=00:01:57.07 bitrate= 841.9kbits/s dup=0 drop=2 speed=0.688x    frame= 3503 fps= 21 q=32.0 size=   12288kB time=00:01:57.53 bitrate= 856.4kbits/s dup=0 drop=2 speed=0.689x    frame= 3511 fps= 21 q=32.0 size=   12288kB time=00:01:57.53 bitrate= 856.4kbits/s dup=0 drop=2 speed=0.687x    frame= 3519 fps= 20 q=32.0 size=   12288kB time=00:01:58.00 bitrate= 853.1kbits/s dup=0 drop=2 speed=0.687x    frame= 3526 fps= 20 q=32.0 size=   12288kB time=00:01:58.00 bitrate= 853.1kbits/s dup=0 drop=2 speed=0.685x    frame= 3533 fps= 20 q=32.0 size=   12288kB time=00:01:58.46 bitrate= 849.7kbits/s dup=0 drop=2 speed=0.686x    frame= 3537 fps= 20 q=32.0 size=   12288kB time=00:01:58.46 bitrate= 849.7kbits/s dup=0 drop=2 speed=0.683x    frame= 3541 fps= 20 q=32.0 size=   12288kB time=00:01:58.46 bitrate= 849.7kbits/s dup=0 drop=2 speed=0.681x    frame= 3546 fps= 20 q=32.0 size=   12288kB time=00:01:58.93 bitrate= 846.4kbits/s dup=0 drop=2 speed=0.681x    frame= 3551 fps= 20 q=32.0 size=   12288kB time=00:01:58.93 bitrate= 846.4kbits/s dup=0 drop=2 speed=0.679x    frame= 3556 fps= 20 q=32.0 size=   12544kB time=00:01:58.93 bitrate= 864.0kbits/s dup=0 drop=2 speed=0.677x    frame= 3562 fps= 20 q=32.0 size=   12544kB time=00:01:59.39 bitrate= 860.7kbits/s dup=0 drop=2 speed=0.677x    frame= 3568 fps= 20 q=32.0 size=   12544kB time=00:01:59.39 bitrate= 860.7kbits/s dup=0 drop=2 speed=0.675x    frame= 3574 fps= 20 q=32.0 size=   12544kB time=00:01:59.86 bitrate= 857.3kbits/s dup=0 drop=2 speed=0.676x    frame= 3581 fps= 20 q=32.0 size=   12544kB time=00:01:59.86 bitrate= 857.3kbits/s dup=0 drop=2 speed=0.674x    frame= 3587 fps= 20 q=32.0 size=   12544kB time=00:02:00.32 bitrate= 854.0kbits/s dup=0 drop=2 speed=0.674x    frame= 3592 fps= 20 q=32.0 size=   12544kB time=00:02:00.32 bitrate= 854.0kbits/s dup=0 drop=2 speed=0.672x    frame= 3597 fps= 20 q=32.0 size=   12544kB time=00:02:00.32 bitrate= 854.0kbits/s dup=0 drop=2 speed=0.67x    frame= 3602 fps= 20 q=32.0 size=   12544kB time=00:02:00.79 bitrate= 850.7kbits/s dup=0 drop=2 speed=0.67x    frame= 3608 fps= 20 q=32.0 size=   12544kB time=00:02:00.79 bitrate= 850.7kbits/s dup=0 drop=2 speed=0.668x    frame= 3614 fps= 20 q=32.0 size=   12544kB time=00:02:01.25 bitrate= 847.5kbits/s dup=0 drop=2 speed=0.669x    frame= 3621 fps= 20 q=32.0 size=   12544kB time=00:02:01.25 bitrate= 847.5kbits/s dup=0 drop=2 speed=0.667x    frame= 3626 fps= 20 q=32.0 size=   12544kB time=00:02:01.44 bitrate= 846.2kbits/s dup=0 drop=2 speed=0.666x    frame= 3634 fps= 20 q=32.0 size=   12800kB time=00:02:01.71 bitrate= 861.5kbits/s dup=0 drop=2 speed=0.666x    frame= 3639 fps= 20 q=32.0 size=   12800kB time=00:02:01.74 bitrate= 861.3kbits/s dup=0 drop=2 speed=0.664x    frame= 3646 fps= 20 q=32.0 size=   12800kB time=00:02:02.18 bitrate= 858.2kbits/s dup=0 drop=2 speed=0.664x    frame= 3652 fps= 20 q=32.0 size=   12800kB time=00:02:02.20 bitrate= 858.0kbits/s dup=0 drop=2 speed=0.662x    frame= 3658 fps= 20 q=32.0 size=   12800kB time=00:02:02.64 bitrate= 855.0kbits/s dup=0 drop=2 speed=0.662x    frame= 3665 fps= 20 q=32.0 size=   12800kB time=00:02:02.64 bitrate= 855.0kbits/s dup=0 drop=2 speed=0.66x    frame= 3671 fps= 20 q=32.0 size=   12800kB time=00:02:03.11 bitrate= 851.7kbits/s dup=0 drop=2 speed=0.661x    frame= 3677 fps= 20 q=32.0 size=   12800kB time=00:02:03.11 bitrate= 851.7kbits/s dup=0 drop=2 speed=0.659x    frame= 3683 fps= 20 q=32.0 size=   12800kB time=00:02:03.57 bitrate= 848.5kbits/s dup=0 drop=2 speed=0.66x    frame= 3689 fps= 20 q=32.0 size=   12800kB time=00:02:03.57 bitrate= 848.5kbits/s dup=0 drop=2 speed=0.658x    frame= 3693 fps= 20 q=32.0 size=   12800kB time=00:02:03.59 bitrate= 848.4kbits/s dup=0 drop=2 speed=0.656x    frame= 3699 fps= 20 q=32.0 size=   13056kB time=00:02:04.04 bitrate= 862.3kbits/s dup=0 drop=2 speed=0.657x    frame= 3706 fps= 20 q=32.0 size=   13056kB time=00:02:04.04 bitrate= 862.3kbits/s dup=0 drop=3 speed=0.655x    frame= 3711 fps= 20 q=32.0 size=   13056kB time=00:02:04.50 bitrate= 859.0kbits/s dup=0 drop=3 speed=0.656x    frame= 3718 fps= 20 q=32.0 size=   13056kB time=00:02:04.50 bitrate= 859.0kbits/s dup=0 drop=3 speed=0.653x    frame= 3723 fps= 19 q=32.0 size=   13056kB time=00:02:04.96 bitrate= 855.8kbits/s dup=0 drop=3 speed=0.654x    frame= 3730 fps= 19 q=32.0 size=   13056kB time=00:02:04.96 bitrate= 855.8kbits/s dup=0 drop=3 speed=0.652x    frame= 3736 fps= 19 q=32.0 size=   13056kB time=00:02:05.43 bitrate= 852.7kbits/s dup=0 drop=3 speed=0.653x    frame= 3743 fps= 19 q=32.0 size=   13056kB time=00:02:05.43 bitrate= 852.7kbits/s dup=0 drop=3 speed=0.651x    frame= 3748 fps= 19 q=32.0 size=   13056kB time=00:02:05.45 bitrate= 852.5kbits/s dup=0 drop=3 speed=0.649x    frame= 3755 fps= 19 q=32.0 size=   13056kB time=00:02:05.89 bitrate= 849.5kbits/s dup=0 drop=3 speed=0.649x    frame= 3762 fps= 19 q=32.0 size=   13056kB time=00:02:05.89 bitrate= 849.5kbits/s dup=0 drop=3 speed=0.648x    frame= 3768 fps= 19 q=32.0 size=   13312kB time=00:02:06.36 bitrate= 863.0kbits/s dup=0 drop=3 speed=0.648x    frame= 3775 fps= 19 q=32.0 size=   13312kB time=00:02:06.36 bitrate= 863.0kbits/s dup=0 drop=3 speed=0.647x    frame= 3781 fps= 19 q=32.0 size=   13312kB time=00:02:06.82 bitrate= 859.8kbits/s dup=0 drop=3 speed=0.647x    frame= 3788 fps= 19 q=32.0 size=   13312kB time=00:02:06.82 bitrate= 859.8kbits/s dup=0 drop=3 speed=0.645x    frame= 3794 fps= 19 q=32.0 size=   13312kB time=00:02:07.29 bitrate= 856.7kbits/s dup=0 drop=3 speed=0.646x    frame= 3800 fps= 19 q=32.0 size=   13312kB time=00:02:07.29 bitrate= 856.7kbits/s dup=0 drop=3 speed=0.644x    frame= 3807 fps= 19 q=32.0 size=   13312kB time=00:02:07.75 bitrate= 853.6kbits/s dup=0 drop=3 speed=0.645x    frame= 3813 fps= 19 q=32.0 size=   13312kB time=00:02:07.75 bitrate= 853.6kbits/s dup=0 drop=3 speed=0.643x    frame= 3818 fps= 19 q=32.0 size=   13312kB time=00:02:07.77 bitrate= 853.4kbits/s dup=0 drop=3 speed=0.641x    frame= 3825 fps= 19 q=32.0 size=   13312kB time=00:02:08.22 bitrate= 850.5kbits/s dup=0 drop=3 speed=0.642x    frame= 3831 fps= 19 q=32.0 size=   13312kB time=00:02:08.22 bitrate= 850.5kbits/s dup=0 drop=3 speed=0.64x    frame= 3836 fps= 19 q=32.0 size=   13568kB time=00:02:08.68 bitrate= 863.7kbits/s dup=0 drop=3 speed=0.641x    frame= 3841 fps= 19 q=32.0 size=   13568kB time=00:02:08.68 bitrate= 863.7kbits/s dup=0 drop=3 speed=0.639x    frame= 3846 fps= 19 q=32.0 size=   13568kB time=00:02:08.68 bitrate= 863.7kbits/s dup=0 drop=3 speed=0.637x    frame= 3851 fps= 19 q=32.0 size=   13568kB time=00:02:09.14 bitrate= 860.6kbits/s dup=0 drop=3 speed=0.638x    frame= 3856 fps= 19 q=32.0 size=   13568kB time=00:02:09.14 bitrate= 860.6kbits/s dup=0 drop=3 speed=0.636x    frame= 3860 fps= 19 q=32.0 size=   13568kB time=00:02:09.17 bitrate= 860.5kbits/s dup=0 drop=3 speed=0.634x    frame= 3866 fps= 19 q=32.0 size=   13568kB time=00:02:09.61 bitrate= 857.5kbits/s dup=0 drop=3 speed=0.635x    frame= 3871 fps= 19 q=32.0 size=   13568kB time=00:02:09.61 bitrate= 857.5kbits/s dup=0 drop=3 speed=0.633x    frame= 3876 fps= 19 q=32.0 size=   13568kB time=00:02:10.07 bitrate= 854.5kbits/s dup=0 drop=3 speed=0.633x    frame= 3881 fps= 19 q=32.0 size=   13568kB time=00:02:10.07 bitrate= 854.5kbits/s dup=0 drop=3 speed=0.632x    frame= 3885 fps= 19 q=32.0 size=   13568kB time=00:02:10.07 bitrate= 854.5kbits/s dup=0 drop=3 speed=0.63x    frame= 3889 fps= 19 q=32.0 size=   13568kB time=00:02:10.54 bitrate= 851.4kbits/s dup=0 drop=3 speed=0.63x    frame= 3893 fps= 19 q=32.0 size=   13824kB time=00:02:10.54 bitrate= 867.5kbits/s dup=0 drop=3 speed=0.629x    frame= 3897 fps= 19 q=32.0 size=   13824kB time=00:02:10.54 bitrate= 867.5kbits/s dup=0 drop=3 speed=0.627x    frame= 3900 fps= 19 q=32.0 size=   13824kB time=00:02:10.56 bitrate= 867.4kbits/s dup=0 drop=3 speed=0.625x    frame= 3905 fps= 19 q=32.0 size=   13824kB time=00:02:11.00 bitrate= 864.4kbits/s dup=0 drop=3 speed=0.625x    frame= 3909 fps= 19 q=32.0 size=   13824kB time=00:02:11.00 bitrate= 864.4kbits/s dup=0 drop=3 speed=0.624x    frame= 3913 fps= 19 q=32.0 size=   13824kB time=00:02:11.00 bitrate= 864.4kbits/s dup=0 drop=3 speed=0.622x    frame= 3917 fps= 19 q=32.0 size=   13824kB time=00:02:11.47 bitrate= 861.4kbits/s dup=0 drop=3 speed=0.622x    frame= 3921 fps= 19 q=32.0 size=   13824kB time=00:02:11.47 bitrate= 861.4kbits/s dup=0 drop=3 speed=0.621x    frame= 3925 fps= 18 q=32.0 size=   13824kB time=00:02:11.47 bitrate= 861.4kbits/s dup=0 drop=3 speed=0.619x    frame= 3929 fps= 18 q=32.0 size=   14080kB time=00:02:11.93 bitrate= 874.2kbits/s dup=0 drop=3 speed=0.619x    frame= 3933 fps= 18 q=32.0 size=   14080kB time=00:02:11.93 bitrate= 874.2kbits/s dup=0 drop=3 speed=0.618x    frame= 3937 fps= 18 q=32.0 size=   14080kB time=00:02:11.93 bitrate= 874.2kbits/s dup=0 drop=3 speed=0.616x    frame= 3941 fps= 18 q=32.0 size=   14080kB time=00:02:11.93 bitrate= 874.2kbits/s dup=0 drop=3 speed=0.614x    frame= 3945 fps= 18 q=32.0 size=   14080kB time=00:02:12.40 bitrate= 871.2kbits/s dup=0 drop=3 speed=0.615x    frame= 3949 fps= 18 q=32.0 size=   14080kB time=00:02:12.40 bitrate= 871.2kbits/s dup=0 drop=3 speed=0.613x    frame= 3953 fps= 18 q=32.0 size=   14080kB time=00:02:12.40 bitrate= 871.2kbits/s dup=0 drop=3 speed=0.611x    frame= 3957 fps= 18 q=32.0 size=   14080kB time=00:02:12.86 bitrate= 868.1kbits/s dup=0 drop=3 speed=0.612x    frame= 3961 fps= 18 q=32.0 size=   14080kB time=00:02:12.86 bitrate= 868.1kbits/s dup=0 drop=3 speed=0.61x    frame= 3965 fps= 18 q=32.0 size=   14336kB time=00:02:12.86 bitrate= 883.9kbits/s dup=0 drop=3 speed=0.608x    frame= 3969 fps= 18 q=32.0 size=   14336kB time=00:02:12.86 bitrate= 883.9kbits/s dup=0 drop=3 speed=0.607x    frame= 3973 fps= 18 q=32.0 size=   14336kB time=00:02:13.32 bitrate= 880.8kbits/s dup=0 drop=3 speed=0.608x    frame= 3978 fps= 18 q=32.0 size=   14336kB time=00:02:13.32 bitrate= 880.8kbits/s dup=0 drop=3 speed=0.606x    frame= 3983 fps= 18 q=32.0 size=   14336kB time=00:02:13.32 bitrate= 880.8kbits/s dup=0 drop=3 speed=0.604x    frame= 3987 fps= 18 q=32.0 size=   14336kB time=00:02:13.79 bitrate= 877.8kbits/s dup=0 drop=3 speed=0.605x    frame= 3991 fps= 18 q=32.0 size=   14336kB time=00:02:13.79 bitrate= 877.8kbits/s dup=0 drop=3 speed=0.604x    frame= 3995 fps= 18 q=32.0 size=   14336kB time=00:02:13.79 bitrate= 877.8kbits/s dup=0 drop=3 speed=0.602x    frame= 4000 fps= 18 q=32.0 size=   14336kB time=00:02:14.25 bitrate= 874.7kbits/s dup=0 drop=3 speed=0.603x    frame= 4005 fps= 18 q=32.0 size=   14336kB time=00:02:14.25 bitrate= 874.7kbits/s dup=0 drop=3 speed=0.601x    frame= 4011 fps= 18 q=32.0 size=   14336kB time=00:02:14.25 bitrate= 874.7kbits/s dup=0 drop=3 speed= 0.6x    frame= 4015 fps= 18 q=32.0 size=   14592kB time=00:02:14.72 bitrate= 887.3kbits/s dup=0 drop=3 speed= 0.6x    frame= 4019 fps= 18 q=32.0 size=   14592kB time=00:02:14.72 bitrate= 887.3kbits/s dup=0 drop=3 speed=0.599x    frame= 4023 fps= 18 q=32.0 size=   14592kB time=00:02:14.72 bitrate= 887.3kbits/s dup=0 drop=3 speed=0.597x    frame= 4027 fps= 18 q=32.0 size=   14592kB time=00:02:15.18 bitrate= 884.2kbits/s dup=0 drop=3 speed=0.598x    frame= 4031 fps= 18 q=32.0 size=   14592kB time=00:02:15.18 bitrate= 884.2kbits/s dup=0 drop=3 speed=0.597x    frame= 4036 fps= 18 q=32.0 size=   14592kB time=00:02:15.18 bitrate= 884.2kbits/s dup=0 drop=3 speed=0.595x    frame= 4042 fps= 18 q=32.0 size=   14592kB time=00:02:15.65 bitrate= 881.2kbits/s dup=0 drop=3 speed=0.596x    frame= 4048 fps= 18 q=32.0 size=   14592kB time=00:02:15.65 bitrate= 881.2kbits/s dup=0 drop=3 speed=0.594x    frame= 4053 fps= 18 q=32.0 size=   14592kB time=00:02:15.67 bitrate= 881.1kbits/s dup=0 drop=3 speed=0.593x    frame= 4059 fps= 18 q=32.0 size=   14592kB time=00:02:16.11 bitrate= 878.2kbits/s dup=0 drop=3 speed=0.593x    frame= 4064 fps= 18 q=32.0 size=   14848kB time=00:02:16.11 bitrate= 893.6kbits/s dup=0 drop=3 speed=0.592x    frame= 4069 fps= 18 q=32.0 size=   14848kB time=00:02:16.57 bitrate= 890.6kbits/s dup=0 drop=3 speed=0.593x    frame= 4074 fps= 18 q=32.0 size=   14848kB time=00:02:16.57 bitrate= 890.6kbits/s dup=0 drop=3 speed=0.591x    frame= 4079 fps= 18 q=32.0 size=   14848kB time=00:02:16.57 bitrate= 890.6kbits/s dup=0 drop=3 speed=0.589x    frame= 4084 fps= 18 q=32.0 size=   14848kB time=00:02:17.04 bitrate= 887.6kbits/s dup=0 drop=3 speed=0.59x    frame= 4089 fps= 18 q=32.0 size=   14848kB time=00:02:17.04 bitrate= 887.6kbits/s dup=0 drop=3 speed=0.588x    frame= 4092 fps= 18 q=29.0 size=   14848kB time=00:02:17.04 bitrate= 887.6kbits/s dup=0 drop=3 speed=0.587x    frame= 4097 fps= 17 q=32.0 size=   14848kB time=00:02:17.50 bitrate= 884.6kbits/s dup=0 drop=3 speed=0.587x    frame= 4101 fps= 17 q=32.0 size=   14848kB time=00:02:17.50 bitrate= 884.6kbits/s dup=0 drop=3 speed=0.586x    frame= 4106 fps= 17 q=32.0 size=   14848kB time=00:02:17.50 bitrate= 884.6kbits/s dup=0 drop=3 speed=0.584x    frame= 4111 fps= 17 q=32.0 size=   14848kB time=00:02:17.97 bitrate= 881.6kbits/s dup=0 drop=3 speed=0.585x    frame= 4116 fps= 17 q=32.0 size=   15104kB time=00:02:17.97 bitrate= 896.8kbits/s dup=0 drop=3 speed=0.583x    frame= 4120 fps= 17 q=32.0 size=   15104kB time=00:02:17.97 bitrate= 896.8kbits/s dup=0 drop=3 speed=0.582x    frame= 4123 fps= 17 q=32.0 size=   15104kB time=00:02:18.06 bitrate= 896.2kbits/s dup=0 drop=3 speed=0.581x    frame= 4128 fps= 17 q=32.0 size=   15104kB time=00:02:18.43 bitrate= 893.8kbits/s dup=0 drop=3 speed=0.581x    frame= 4132 fps= 17 q=32.0 size=   15104kB time=00:02:18.43 bitrate= 893.8kbits/s dup=0 drop=3 speed=0.58x    frame= 4136 fps= 17 q=32.0 size=   15104kB time=00:02:18.46 bitrate= 893.6kbits/s dup=0 drop=3 speed=0.579x    frame= 4141 fps= 17 q=32.0 size=   15104kB time=00:02:18.90 bitrate= 890.8kbits/s dup=0 drop=3 speed=0.579x    frame= 4145 fps= 17 q=32.0 size=   15104kB time=00:02:18.90 bitrate= 890.8kbits/s dup=0 drop=3 speed=0.578x    frame= 4149 fps= 17 q=32.0 size=   15104kB time=00:02:18.92 bitrate= 890.6kbits/s dup=0 drop=3 speed=0.577x    frame= 4155 fps= 17 q=32.0 size=   15104kB time=00:02:19.36 bitrate= 887.8kbits/s dup=0 drop=3 speed=0.577x    frame= 4159 fps= 17 q=32.0 size=   15104kB time=00:02:19.36 bitrate= 887.8kbits/s dup=0 drop=3 speed=0.576x    frame= 4162 fps= 17 q=32.0 size=   15360kB time=00:02:19.38 bitrate= 902.7kbits/s dup=0 drop=3 speed=0.575x    frame= 4168 fps= 17 q=32.0 size=   15360kB time=00:02:19.83 bitrate= 899.9kbits/s dup=0 drop=3 speed=0.575x    frame= 4172 fps= 17 q=32.0 size=   15360kB time=00:02:19.83 bitrate= 899.9kbits/s dup=0 drop=3 speed=0.574x    frame= 4176 fps= 17 q=32.0 size=   15360kB time=00:02:19.85 bitrate= 899.7kbits/s dup=0 drop=3 speed=0.573x    frame= 4182 fps= 17 q=32.0 size=   15360kB time=00:02:20.29 bitrate= 896.9kbits/s dup=0 drop=3 speed=0.573x    frame= 4186 fps= 17 q=32.0 size=   15360kB time=00:02:20.29 bitrate= 896.9kbits/s dup=0 drop=3 speed=0.572x    frame= 4190 fps= 17 q=32.0 size=   15360kB time=00:02:20.29 bitrate= 896.9kbits/s dup=0 drop=3 speed=0.571x    frame= 4195 fps= 17 q=32.0 size=   15360kB time=00:02:20.75 bitrate= 893.9kbits/s dup=0 drop=3 speed=0.571x    frame= 4200 fps= 17 q=32.0 size=   15360kB time=00:02:20.75 bitrate= 893.9kbits/s dup=0 drop=3 speed=0.57x    frame= 4206 fps= 17 q=32.0 size=   15360kB time=00:02:21.22 bitrate= 891.0kbits/s dup=0 drop=3 speed=0.57x    frame= 4213 fps= 17 q=32.0 size=   15360kB time=00:02:21.22 bitrate= 891.0kbits/s dup=0 drop=3 speed=0.569x    frame= 4218 fps= 17 q=32.0 size=   15360kB time=00:02:21.24 bitrate= 890.8kbits/s dup=0 drop=3 speed=0.568x    frame= 4225 fps= 17 q=32.0 size=   15616kB time=00:02:21.68 bitrate= 902.9kbits/s dup=0 drop=3 speed=0.568x    frame= 4230 fps= 17 q=32.0 size=   15616kB time=00:02:21.68 bitrate= 902.9kbits/s dup=0 drop=3 speed=0.567x    frame= 4236 fps= 17 q=32.0 size=   15616kB time=00:02:22.15 bitrate= 899.9kbits/s dup=0 drop=3 speed=0.568x    frame= 4242 fps= 17 q=32.0 size=   15616kB time=00:02:22.15 bitrate= 899.9kbits/s dup=0 drop=3 speed=0.566x    frame= 4246 fps= 17 q=32.0 size=   15616kB time=00:02:22.15 bitrate= 899.9kbits/s dup=0 drop=3 speed=0.565x    frame= 4250 fps= 17 q=32.0 size=   15616kB time=00:02:22.61 bitrate= 897.0kbits/s dup=0 drop=3 speed=0.566x    frame= 4255 fps= 17 q=32.0 size=   15616kB time=00:02:22.61 bitrate= 897.0kbits/s dup=0 drop=3 speed=0.564x    frame= 4260 fps= 17 q=32.0 size=   15616kB time=00:02:22.61 bitrate= 897.0kbits/s dup=0 drop=3 speed=0.563x    frame= 4264 fps= 17 q=32.0 size=   15616kB time=00:02:23.08 bitrate= 894.1kbits/s dup=0 drop=3 speed=0.564x    frame= 4270 fps= 17 q=32.0 size=   15616kB time=00:02:23.08 bitrate= 894.1kbits/s dup=0 drop=3 speed=0.562x    frame= 4276 fps= 17 q=32.0 size=   15872kB time=00:02:23.54 bitrate= 905.8kbits/s dup=0 drop=3 speed=0.563x    frame= 4282 fps= 17 q=32.0 size=   15872kB time=00:02:23.54 bitrate= 905.8kbits/s dup=0 drop=3 speed=0.562x    frame= 4287 fps= 17 q=32.0 size=   15872kB time=00:02:23.54 bitrate= 905.8kbits/s dup=0 drop=3 speed=0.56x    frame= 4292 fps= 17 q=32.0 size=   15872kB time=00:02:24.01 bitrate= 902.9kbits/s dup=0 drop=3 speed=0.561x    frame= 4297 fps= 17 q=32.0 size=   15872kB time=00:02:24.01 bitrate= 902.9kbits/s dup=0 drop=3 speed=0.559x    frame= 4301 fps= 17 q=32.0 size=   15872kB time=00:02:24.01 bitrate= 902.9kbits/s dup=0 drop=3 speed=0.558x    frame= 4305 fps= 17 q=32.0 size=   15872kB time=00:02:24.47 bitrate= 900.0kbits/s dup=0 drop=3 speed=0.559x    frame= 4311 fps= 17 q=32.0 size=   15872kB time=00:02:24.47 bitrate= 900.0kbits/s dup=0 drop=3 speed=0.558x    frame= 4316 fps= 17 q=32.0 size=   15872kB time=00:02:24.49 bitrate= 899.8kbits/s dup=0 drop=3 speed=0.556x    frame= 4322 fps= 17 q=32.0 size=   15872kB time=00:02:24.93 bitrate= 897.1kbits/s dup=0 drop=3 speed=0.557x    frame= 4327 fps= 17 q=32.0 size=   15872kB time=00:02:24.93 bitrate= 897.1kbits/s dup=0 drop=3 speed=0.556x    frame= 4330 fps= 17 q=32.0 size=   15872kB time=00:02:24.96 bitrate= 896.9kbits/s dup=0 drop=3 speed=0.554x    frame= 4335 fps= 17 q=32.0 size=   16128kB time=00:02:25.40 bitrate= 908.7kbits/s dup=0 drop=3 speed=0.555x    frame= 4339 fps= 17 q=32.0 size=   16128kB time=00:02:25.40 bitrate= 908.7kbits/s dup=0 drop=3 speed=0.554x    frame= 4344 fps= 17 q=32.0 size=   16128kB time=00:02:25.40 bitrate= 908.7kbits/s dup=0 drop=3 speed=0.553x    frame= 4348 fps= 16 q=32.0 size=   16128kB time=00:02:25.86 bitrate= 905.8kbits/s dup=0 drop=3 speed=0.553x    frame= 4352 fps= 16 q=32.0 size=   16128kB time=00:02:25.86 bitrate= 905.8kbits/s dup=0 drop=3 speed=0.552x    frame= 4357 fps= 16 q=32.0 size=   16128kB time=00:02:25.86 bitrate= 905.8kbits/s dup=0 drop=3 speed=0.551x    frame= 4361 fps= 16 q=32.0 size=   16128kB time=00:02:26.33 bitrate= 902.9kbits/s dup=0 drop=3 speed=0.552x    frame= 4366 fps= 16 q=32.0 size=   16128kB time=00:02:26.33 bitrate= 902.9kbits/s dup=0 drop=3 speed=0.55x    frame= 4370 fps= 16 q=32.0 size=   16128kB time=00:02:26.33 bitrate= 902.9kbits/s dup=0 drop=3 speed=0.549x    frame= 4375 fps= 16 q=32.0 size=   16128kB time=00:02:26.79 bitrate= 900.0kbits/s dup=0 drop=3 speed=0.55x    frame= 4379 fps= 16 q=32.0 size=   16128kB time=00:02:26.79 bitrate= 900.0kbits/s dup=0 drop=3 speed=0.548x    frame= 4383 fps= 16 q=32.0 size=   16384kB time=00:02:26.79 bitrate= 914.3kbits/s dup=0 drop=3 speed=0.547x    frame= 4387 fps= 16 q=32.0 size=   16384kB time=00:02:27.26 bitrate= 911.4kbits/s dup=0 drop=3 speed=0.548x    frame= 4391 fps= 16 q=32.0 size=   16384kB time=00:02:27.26 bitrate= 911.4kbits/s dup=0 drop=3 speed=0.547x    frame= 4395 fps= 16 q=32.0 size=   16384kB time=00:02:27.26 bitrate= 911.4kbits/s dup=0 drop=3 speed=0.546x    frame= 4398 fps= 16 q=32.0 size=   16384kB time=00:02:27.28 bitrate= 911.3kbits/s dup=0 drop=3 speed=0.545x    frame= 4404 fps= 16 q=32.0 size=   16384kB time=00:02:27.72 bitrate= 908.6kbits/s dup=0 drop=3 speed=0.545x    frame= 4408 fps= 16 q=32.0 size=   16384kB time=00:02:27.72 bitrate= 908.6kbits/s dup=0 drop=3 speed=0.544x    frame= 4411 fps= 16 q=32.0 size=   16384kB time=00:02:27.74 bitrate= 908.4kbits/s dup=0 drop=3 speed=0.543x    frame= 4416 fps= 16 q=32.0 size=   16384kB time=00:02:28.18 bitrate= 905.7kbits/s dup=0 drop=3 speed=0.543x    frame= 4421 fps= 16 q=32.0 size=   16384kB time=00:02:28.18 bitrate= 905.7kbits/s dup=0 drop=3 speed=0.542x    frame= 4425 fps= 16 q=32.0 size=   16384kB time=00:02:28.18 bitrate= 905.7kbits/s dup=0 drop=3 speed=0.541x    frame= 4429 fps= 16 q=32.0 size=   16384kB time=00:02:28.65 bitrate= 902.9kbits/s dup=0 drop=3 speed=0.542x    frame= 4433 fps= 16 q=32.0 size=   16640kB time=00:02:28.65 bitrate= 917.0kbits/s dup=0 drop=3 speed=0.541x    frame= 4438 fps= 16 q=32.0 size=   16640kB time=00:02:28.65 bitrate= 917.0kbits/s dup=0 drop=3 speed=0.539x    frame= 4442 fps= 16 q=32.0 size=   16640kB time=00:02:29.11 bitrate= 914.1kbits/s dup=0 drop=3 speed=0.54x    frame= 4446 fps= 16 q=32.0 size=   16640kB time=00:02:29.11 bitrate= 914.1kbits/s dup=0 drop=3 speed=0.539x    frame= 4450 fps= 16 q=32.0 size=   16640kB time=00:02:29.11 bitrate= 914.1kbits/s dup=0 drop=3 speed=0.538x    frame= 4453 fps= 16 q=32.0 size=   16640kB time=00:02:29.14 bitrate= 914.0kbits/s dup=0 drop=3 speed=0.537x    frame= 4458 fps= 16 q=32.0 size=   16640kB time=00:02:29.58 bitrate= 911.3kbits/s dup=0 drop=3 speed=0.537x    frame= 4462 fps= 16 q=32.0 size=   16640kB time=00:02:29.58 bitrate= 911.3kbits/s dup=0 drop=3 speed=0.536x    frame= 4466 fps= 16 q=32.0 size=   16640kB time=00:02:29.58 bitrate= 911.3kbits/s dup=0 drop=3 speed=0.535x    frame= 4470 fps= 16 q=32.0 size=   16640kB time=00:02:30.04 bitrate= 908.5kbits/s dup=0 drop=3 speed=0.536x    frame= 4474 fps= 16 q=32.0 size=   16896kB time=00:02:30.04 bitrate= 922.5kbits/s dup=0 drop=3 speed=0.535x    frame= 4478 fps= 16 q=32.0 size=   16896kB time=00:02:30.04 bitrate= 922.5kbits/s dup=0 drop=3 speed=0.534x    frame= 4481 fps= 16 q=32.0 size=   16896kB time=00:02:30.07 bitrate= 922.3kbits/s dup=0 drop=3 speed=0.533x    frame= 4486 fps= 16 q=32.0 size=   16896kB time=00:02:30.51 bitrate= 919.6kbits/s dup=0 drop=3 speed=0.533x    frame= 4491 fps= 16 q=32.0 size=   16896kB time=00:02:30.51 bitrate= 919.6kbits/s dup=0 drop=3 speed=0.532x    frame= 4495 fps= 16 q=32.0 size=   16896kB time=00:02:30.51 bitrate= 919.6kbits/s dup=0 drop=3 speed=0.531x    frame= 4499 fps= 16 q=32.0 size=   16896kB time=00:02:30.97 bitrate= 916.8kbits/s dup=0 drop=3 speed=0.532x    frame= 4503 fps= 16 q=32.0 size=   16896kB time=00:02:30.97 bitrate= 916.8kbits/s dup=0 drop=3 speed=0.531x    frame= 4508 fps= 16 q=32.0 size=   16896kB time=00:02:30.97 bitrate= 916.8kbits/s dup=0 drop=3 speed=0.53x    frame= 4512 fps= 16 q=32.0 size=   16896kB time=00:02:31.44 bitrate= 914.0kbits/s dup=0 drop=3 speed=0.53x    frame= 4517 fps= 16 q=32.0 size=   16896kB time=00:02:31.44 bitrate= 914.0kbits/s dup=0 drop=3 speed=0.529x    frame= 4522 fps= 16 q=32.0 size=   17152kB time=00:02:31.44 bitrate= 927.8kbits/s dup=0 drop=3 speed=0.528x    frame= 4526 fps= 16 q=32.0 size=   17152kB time=00:02:31.90 bitrate= 925.0kbits/s dup=0 drop=3 speed=0.529x    frame= 4530 fps= 16 q=32.0 size=   17152kB time=00:02:31.90 bitrate= 925.0kbits/s dup=0 drop=3 speed=0.528x    frame= 4534 fps= 16 q=32.0 size=   17152kB time=00:02:31.90 bitrate= 925.0kbits/s dup=0 drop=3 speed=0.527x    frame= 4537 fps= 16 q=32.0 size=   17152kB time=00:02:31.92 bitrate= 924.8kbits/s dup=0 drop=3 speed=0.526x    frame= 4542 fps= 16 q=32.0 size=   17152kB time=00:02:32.36 bitrate= 922.2kbits/s dup=0 drop=3 speed=0.527x    frame= 4547 fps= 16 q=32.0 size=   17152kB time=00:02:32.36 bitrate= 922.2kbits/s dup=0 drop=3 speed=0.525x    frame= 4551 fps= 16 q=32.0 size=   17152kB time=00:02:32.39 bitrate= 922.0kbits/s dup=0 drop=3 speed=0.524x    frame= 4557 fps= 16 q=32.0 size=   17152kB time=00:02:32.83 bitrate= 919.4kbits/s dup=0 drop=3 speed=0.525x    frame= 4562 fps= 16 q=32.0 size=   17152kB time=00:02:32.83 bitrate= 919.4kbits/s dup=0 drop=3 speed=0.524x    frame= 4565 fps= 16 q=32.0 size=   17152kB time=00:02:32.85 bitrate= 919.2kbits/s dup=0 drop=3 speed=0.523x    frame= 4571 fps= 16 q=32.0 size=   17408kB time=00:02:33.29 bitrate= 930.3kbits/s dup=0 drop=3 speed=0.523x    frame= 4579 fps= 16 q=32.0 size=   17408kB time=00:02:33.29 bitrate= 930.3kbits/s dup=0 drop=3 speed=0.522x    frame= 4586 fps= 16 q=32.0 size=   17408kB time=00:02:33.76 bitrate= 927.4kbits/s dup=0 drop=3 speed=0.523x    frame= 4593 fps= 16 q=32.0 size=   17408kB time=00:02:33.76 bitrate= 927.4kbits/s dup=0 drop=3 speed=0.522x    frame= 4600 fps= 16 q=32.0 size=   17408kB time=00:02:34.22 bitrate= 924.7kbits/s dup=0 drop=3 speed=0.523x    frame= 4606 fps= 16 q=32.0 size=   17408kB time=00:02:34.25 bitrate= 924.5kbits/s dup=0 drop=4 speed=0.522x    frame= 4615 fps= 16 q=32.0 size=   17408kB time=00:02:34.69 bitrate= 921.9kbits/s dup=0 drop=4 speed=0.522x    frame= 4624 fps= 16 q=32.0 size=   17408kB time=00:02:35.15 bitrate= 919.1kbits/s dup=0 drop=4 speed=0.523x    frame= 4632 fps= 16 q=32.0 size=   17408kB time=00:02:35.15 bitrate= 919.1kbits/s dup=0 drop=4 speed=0.522x    frame= 4637 fps= 16 q=32.0 size=   17408kB time=00:02:35.62 bitrate= 916.4kbits/s dup=0 drop=4 speed=0.522x    frame= 4642 fps= 16 q=32.0 size=   17664kB time=00:02:35.62 bitrate= 929.9kbits/s dup=0 drop=4 speed=0.521x    frame= 4645 fps= 16 q=32.0 size=   17664kB time=00:02:35.82 bitrate= 928.6kbits/s dup=0 drop=4 speed=0.521x    frame= 4651 fps= 16 q=32.0 size=   17664kB time=00:02:36.08 bitrate= 927.1kbits/s dup=0 drop=4 speed=0.521x    frame= 4656 fps= 16 q=32.0 size=   17664kB time=00:02:36.08 bitrate= 927.1kbits/s dup=0 drop=4 speed=0.52x    frame= 4661 fps= 16 q=32.0 size=   17664kB time=00:02:36.54 bitrate= 924.3kbits/s dup=0 drop=4 speed=0.521x    frame= 4666 fps= 15 q=32.0 size=   17664kB time=00:02:36.54 bitrate= 924.3kbits/s dup=0 drop=4 speed=0.52x    frame= 4671 fps= 15 q=32.0 size=   17664kB time=00:02:36.54 bitrate= 924.3kbits/s dup=0 drop=4 speed=0.519x    frame= 4676 fps= 15 q=32.0 size=   17664kB time=00:02:37.01 bitrate= 921.6kbits/s dup=0 drop=4 speed=0.519x    frame= 4681 fps= 15 q=32.0 size=   17664kB time=00:02:37.01 bitrate= 921.6kbits/s dup=0 drop=4 speed=0.518x    frame= 4686 fps= 15 q=32.0 size=   17664kB time=00:02:37.01 bitrate= 921.6kbits/s dup=0 drop=4 speed=0.517x    frame= 4690 fps= 15 q=32.0 size=   17664kB time=00:02:37.47 bitrate= 918.9kbits/s dup=0 drop=4 speed=0.518x    frame= 4694 fps= 15 q=32.0 size=   17664kB time=00:02:37.47 bitrate= 918.9kbits/s dup=0 drop=4 speed=0.517x    frame= 4698 fps= 15 q=32.0 size=   17664kB time=00:02:37.47 bitrate= 918.9kbits/s dup=0 drop=4 speed=0.516x    frame= 4703 fps= 15 q=32.0 size=   17664kB time=00:02:37.94 bitrate= 916.2kbits/s dup=0 drop=4 speed=0.517x    frame= 4708 fps= 15 q=32.0 size=   17920kB time=00:02:37.94 bitrate= 929.5kbits/s dup=0 drop=4 speed=0.516x    frame= 4713 fps= 15 q=32.0 size=   17920kB time=00:02:37.94 bitrate= 929.5kbits/s dup=0 drop=4 speed=0.515x    frame= 4718 fps= 15 q=32.0 size=   17920kB time=00:02:38.40 bitrate= 926.7kbits/s dup=0 drop=4 speed=0.515x    frame= 4723 fps= 15 q=32.0 size=   17920kB time=00:02:38.40 bitrate= 926.7kbits/s dup=0 drop=4 speed=0.514x    frame= 4729 fps= 15 q=32.0 size=   17920kB time=00:02:38.40 bitrate= 926.7kbits/s dup=0 drop=4 speed=0.513x    frame= 4735 fps= 15 q=32.0 size=   17920kB time=00:02:38.87 bitrate= 924.0kbits/s dup=0 drop=4 speed=0.514x    frame= 4740 fps= 15 q=32.0 size=   17920kB time=00:02:38.87 bitrate= 924.0kbits/s dup=0 drop=4 speed=0.513x    frame= 4745 fps= 15 q=32.0 size=   17920kB time=00:02:39.33 bitrate= 921.3kbits/s dup=0 drop=4 speed=0.514x    frame= 4750 fps= 15 q=32.0 size=   17920kB time=00:02:39.33 bitrate= 921.3kbits/s dup=0 drop=4 speed=0.513x    frame= 4757 fps= 15 q=32.0 size=   17920kB time=00:02:39.35 bitrate= 921.2kbits/s dup=0 drop=4 speed=0.512x    frame= 4765 fps= 15 q=32.0 size=   17920kB time=00:02:39.79 bitrate= 918.7kbits/s dup=0 drop=4 speed=0.512x    frame= 4771 fps= 15 q=32.0 size=   17920kB time=00:02:39.82 bitrate= 918.5kbits/s dup=0 drop=4 speed=0.512x    frame= 4778 fps= 15 q=32.0 size=   18176kB time=00:02:40.26 bitrate= 929.1kbits/s dup=0 drop=4 speed=0.512x    frame= 4784 fps= 15 q=32.0 size=   18176kB time=00:02:40.26 bitrate= 929.1kbits/s dup=0 drop=4 speed=0.511x    frame= 4789 fps= 15 q=32.0 size=   18176kB time=00:02:40.72 bitrate= 926.4kbits/s dup=0 drop=4 speed=0.512x    frame= 4795 fps= 15 q=32.0 size=   18176kB time=00:02:40.72 bitrate= 926.4kbits/s dup=0 drop=4 speed=0.511x    frame= 4799 fps= 15 q=32.0 size=   18176kB time=00:02:40.75 bitrate= 926.3kbits/s dup=0 drop=4 speed=0.51x    frame= 4805 fps= 15 q=32.0 size=   18176kB time=00:02:41.19 bitrate= 923.7kbits/s dup=0 drop=4 speed=0.51x    frame= 4810 fps= 15 q=32.0 size=   18176kB time=00:02:41.19 bitrate= 923.7kbits/s dup=0 drop=4 speed=0.509x    frame= 4813 fps= 15 q=32.0 size=   18176kB time=00:02:41.21 bitrate= 923.6kbits/s dup=0 drop=4 speed=0.509x    frame= 4819 fps= 15 q=32.0 size=   18176kB time=00:02:41.65 bitrate= 921.1kbits/s dup=0 drop=4 speed=0.509x    frame= 4823 fps= 15 q=32.0 size=   18176kB time=00:02:41.65 bitrate= 921.1kbits/s dup=0 drop=4 speed=0.508x    frame= 4827 fps= 15 q=32.0 size=   18176kB time=00:02:41.68 bitrate= 920.9kbits/s dup=0 drop=4 speed=0.507x    frame= 4832 fps= 15 q=32.0 size=   18176kB time=00:02:42.12 bitrate= 918.4kbits/s dup=0 drop=4 speed=0.508x    frame= 4837 fps= 15 q=32.0 size=   18176kB time=00:02:42.12 bitrate= 918.4kbits/s dup=0 drop=4 speed=0.507x    frame= 4841 fps= 15 q=32.0 size=   18432kB time=00:02:42.14 bitrate= 931.2kbits/s dup=0 drop=4 speed=0.506x    frame= 4846 fps= 15 q=32.0 size=   18432kB time=00:02:42.58 bitrate= 928.7kbits/s dup=0 drop=4 speed=0.506x    frame= 4851 fps= 15 q=32.0 size=   18432kB time=00:02:42.58 bitrate= 928.7kbits/s dup=0 drop=4 speed=0.506x    frame= 4855 fps= 15 q=32.0 size=   18432kB time=00:02:42.58 bitrate= 928.7kbits/s dup=0 drop=4 speed=0.505x    frame= 4860 fps= 15 q=32.0 size=   18432kB time=00:02:43.05 bitrate= 926.1kbits/s dup=0 drop=4 speed=0.505x    frame= 4865 fps= 15 q=32.0 size=   18432kB time=00:02:43.05 bitrate= 926.1kbits/s dup=0 drop=4 speed=0.504x    frame= 4870 fps= 15 q=32.0 size=   18432kB time=00:02:43.51 bitrate= 923.4kbits/s dup=0 drop=4 speed=0.505x    frame= 4874 fps= 15 q=32.0 size=   18432kB time=00:02:43.51 bitrate= 923.4kbits/s dup=0 drop=4 speed=0.504x    frame= 4879 fps= 15 q=32.0 size=   18432kB time=00:02:43.51 bitrate= 923.4kbits/s dup=0 drop=4 speed=0.503x    frame= 4884 fps= 15 q=32.0 size=   18432kB time=00:02:43.97 bitrate= 920.8kbits/s dup=0 drop=4 speed=0.504x    frame= 4888 fps= 15 q=32.0 size=   18432kB time=00:02:43.97 bitrate= 920.8kbits/s dup=0 drop=4 speed=0.503x    frame= 4893 fps= 15 q=32.0 size=   18432kB time=00:02:43.97 bitrate= 920.8kbits/s dup=0 drop=4 speed=0.502x    frame= 4898 fps= 15 q=32.0 size=   18688kB time=00:02:44.44 bitrate= 931.0kbits/s dup=0 drop=4 speed=0.503x    frame= 4904 fps= 15 q=32.0 size=   18688kB time=00:02:44.44 bitrate= 931.0kbits/s dup=0 drop=4 speed=0.502x    frame= 4908 fps= 15 q=32.0 size=   18688kB time=00:02:44.46 bitrate= 930.8kbits/s dup=0 drop=4 speed=0.501x    frame= 4914 fps= 15 q=32.0 size=   18688kB time=00:02:44.90 bitrate= 928.4kbits/s dup=0 drop=4 speed=0.501x    frame= 4919 fps= 15 q=32.0 size=   18688kB time=00:02:44.90 bitrate= 928.4kbits/s dup=0 drop=4 speed= 0.5x    frame= 4922 fps= 15 q=32.0 size=   18688kB time=00:02:44.93 bitrate= 928.2kbits/s dup=0 drop=4 speed= 0.5x    frame= 4927 fps= 15 q=32.0 size=   18688kB time=00:02:45.37 bitrate= 925.7kbits/s dup=0 drop=4 speed= 0.5x    frame= 4931 fps= 15 q=32.0 size=   18688kB time=00:02:45.37 bitrate= 925.7kbits/s dup=0 drop=4 speed=0.499x    frame= 4936 fps= 15 q=32.0 size=   18688kB time=00:02:45.37 bitrate= 925.7kbits/s dup=0 drop=4 speed=0.499x    frame= 4942 fps= 15 q=32.0 size=   18688kB time=00:02:45.83 bitrate= 923.2kbits/s dup=0 drop=4 speed=0.499x    frame= 4948 fps= 15 q=32.0 size=   18688kB time=00:02:45.83 bitrate= 923.2kbits/s dup=0 drop=4 speed=0.498x    frame= 4953 fps= 15 q=32.0 size=   18688kB time=00:02:46.30 bitrate= 920.6kbits/s dup=0 drop=4 speed=0.499x    frame= 4958 fps= 15 q=32.0 size=   18944kB time=00:02:46.30 bitrate= 933.2kbits/s dup=0 drop=4 speed=0.498x    frame= 4964 fps= 15 q=32.0 size=   18944kB time=00:02:46.30 bitrate= 933.2kbits/s dup=0 drop=4 speed=0.497x    frame= 4969 fps= 15 q=32.0 size=   18944kB time=00:02:46.76 bitrate= 930.6kbits/s dup=0 drop=4 speed=0.498x    frame= 4974 fps= 15 q=32.0 size=   18944kB time=00:02:46.76 bitrate= 930.6kbits/s dup=0 drop=4 speed=0.497x    frame= 4978 fps= 15 q=32.0 size=   18944kB time=00:02:46.78 bitrate= 930.5kbits/s dup=0 drop=4 speed=0.496x    frame= 4983 fps= 15 q=32.0 size=   18944kB time=00:02:47.23 bitrate= 928.0kbits/s dup=0 drop=4 speed=0.497x    frame= 4988 fps= 15 q=32.0 size=   18944kB time=00:02:47.23 bitrate= 928.0kbits/s dup=0 drop=4 speed=0.496x    frame= 4992 fps= 15 q=32.0 size=   18944kB time=00:02:47.41 bitrate= 927.0kbits/s dup=0 drop=4 speed=0.496x    frame= 4998 fps= 15 q=32.0 size=   18944kB time=00:02:47.69 bitrate= 925.4kbits/s dup=0 drop=4 speed=0.496x    frame= 5002 fps= 15 q=32.0 size=   18944kB time=00:02:47.69 bitrate= 925.4kbits/s dup=0 drop=4 speed=0.495x    frame= 5006 fps= 15 q=32.0 size=   18944kB time=00:02:47.71 bitrate= 925.3kbits/s dup=0 drop=4 speed=0.494x    frame= 5011 fps= 15 q=32.0 size=   19200kB time=00:02:48.15 bitrate= 935.3kbits/s dup=0 drop=4 speed=0.494x    frame= 5015 fps= 15 q=32.0 size=   19200kB time=00:02:48.15 bitrate= 935.3kbits/s dup=0 drop=4 speed=0.494x    frame= 5019 fps= 15 q=32.0 size=   19200kB time=00:02:48.15 bitrate= 935.3kbits/s dup=0 drop=4 speed=0.493x    frame= 5023 fps= 15 q=32.0 size=   19200kB time=00:02:48.62 bitrate= 932.8kbits/s dup=0 drop=4 speed=0.493x    frame= 5027 fps= 15 q=32.0 size=   19200kB time=00:02:48.62 bitrate= 932.8kbits/s dup=0 drop=4 speed=0.493x    frame= 5031 fps= 15 q=32.0 size=   19200kB time=00:02:48.62 bitrate= 932.8kbits/s dup=0 drop=4 speed=0.492x    frame= 5034 fps= 15 q=32.0 size=   19200kB time=00:02:48.64 bitrate= 932.6kbits/s dup=0 drop=4 speed=0.491x    frame= 5039 fps= 15 q=32.0 size=   19200kB time=00:02:49.08 bitrate= 930.2kbits/s dup=0 drop=4 speed=0.492x    frame= 5043 fps= 15 q=32.0 size=   19200kB time=00:02:49.08 bitrate= 930.2kbits/s dup=0 drop=4 speed=0.491x    frame= 5047 fps= 15 q=32.0 size=   19200kB time=00:02:49.08 bitrate= 930.2kbits/s dup=0 drop=4 speed=0.49x    frame= 5052 fps= 15 q=32.0 size=   19456kB time=00:02:49.55 bitrate= 940.0kbits/s dup=0 drop=4 speed=0.491x    frame= 5057 fps= 15 q=32.0 size=   19456kB time=00:02:49.55 bitrate= 940.0kbits/s dup=0 drop=4 speed=0.49x    frame= 5062 fps= 15 q=29.0 size=   19456kB time=00:02:49.55 bitrate= 940.0kbits/s dup=0 drop=4 speed=0.489x    frame= 5067 fps= 15 q=32.0 size=   19456kB time=00:02:50.01 bitrate= 937.5kbits/s dup=0 drop=4 speed=0.49x    frame= 5072 fps= 15 q=32.0 size=   19456kB time=00:02:50.01 bitrate= 937.5kbits/s dup=0 drop=4 speed=0.489x    frame= 5076 fps= 15 q=29.0 size=   19456kB time=00:02:50.01 bitrate= 937.5kbits/s dup=0 drop=4 speed=0.488x    frame= 5081 fps= 15 q=32.0 size=   19456kB time=00:02:50.48 bitrate= 934.9kbits/s dup=0 drop=4 speed=0.489x    frame= 5090 fps= 15 q=32.0 size=   19456kB time=00:02:50.50 bitrate= 934.8kbits/s dup=0 drop=4 speed=0.488x    frame= 5104 fps= 15 q=32.0 size=   19456kB time=00:02:51.36 bitrate= 930.1kbits/s dup=0 drop=4 speed=0.49x    frame= 5119 fps= 15 q=32.0 size=   19456kB time=00:02:51.87 bitrate= 927.3kbits/s dup=0 drop=4 speed=0.491x    frame= 5135 fps= 15 q=32.0 size=   19456kB time=00:02:52.33 bitrate= 924.8kbits/s dup=0 drop=4 speed=0.491x    frame= 5149 fps= 15 q=32.0 size=   19456kB time=00:02:52.80 bitrate= 922.3kbits/s dup=0 drop=4 speed=0.492x    frame= 5164 fps= 15 q=32.0 size=   19456kB time=00:02:53.26 bitrate= 919.9kbits/s dup=0 drop=4 speed=0.492x    frame= 5176 fps= 15 q=32.0 size=   19712kB time=00:02:53.73 bitrate= 929.5kbits/s dup=0 drop=4 speed=0.493x    frame= 5191 fps= 15 q=32.0 size=   19712kB time=00:02:54.19 bitrate= 927.0kbits/s dup=0 drop=4 speed=0.494x    frame= 5206 fps= 15 q=32.0 size=   19712kB time=00:02:54.66 bitrate= 924.5kbits/s dup=0 drop=4 speed=0.494x    frame= 5221 fps= 15 q=32.0 size=   19712kB time=00:02:55.12 bitrate= 922.1kbits/s dup=0 drop=4 speed=0.495x    frame= 5236 fps= 15 q=32.0 size=   19712kB time=00:02:55.58 bitrate= 919.7kbits/s dup=0 drop=4 speed=0.495x    frame= 5252 fps= 15 q=32.0 size=   19712kB time=00:02:56.05 bitrate= 917.2kbits/s dup=0 drop=4 speed=0.496x    frame= 5268 fps= 15 q=32.0 size=   19712kB time=00:02:56.51 bitrate= 914.8kbits/s dup=0 drop=4 speed=0.496x    frame= 5283 fps= 15 q=32.0 size=   19712kB time=00:02:57.00 bitrate= 912.3kbits/s dup=0 drop=4 speed=0.497x    frame= 5299 fps= 15 q=32.0 size=   19712kB time=00:02:57.91 bitrate= 907.6kbits/s dup=0 drop=4 speed=0.499x    frame= 5315 fps= 15 q=32.0 size=   19712kB time=00:02:58.37 bitrate= 905.3kbits/s dup=0 drop=4 speed=0.499x    frame= 5330 fps= 15 q=32.0 size=   19712kB time=00:02:58.84 bitrate= 902.9kbits/s dup=0 drop=4 speed= 0.5x    frame= 5345 fps= 15 q=32.0 size=   19712kB time=00:02:59.30 bitrate= 900.6kbits/s dup=0 drop=4 speed=0.501x    frame= 5360 fps= 15 q=32.0 size=   19712kB time=00:02:59.76 bitrate= 898.3kbits/s dup=0 drop=4 speed=0.501x    frame= 5375 fps= 15 q=32.0 size=   19712kB time=00:03:00.23 bitrate= 896.0kbits/s dup=0 drop=4 speed=0.502x    frame= 5390 fps= 15 q=32.0 size=   19712kB time=00:03:00.69 bitrate= 893.7kbits/s dup=0 drop=4 speed=0.502x    frame= 5405 fps= 15 q=32.0 size=   19712kB time=00:03:01.16 bitrate= 891.4kbits/s dup=0 drop=4 speed=0.503x    frame= 5420 fps= 15 q=32.0 size=   19712kB time=00:03:01.62 bitrate= 889.1kbits/s dup=0 drop=4 speed=0.504x    frame= 5431 fps= 15 q=32.0 size=   19712kB time=00:03:02.09 bitrate= 886.8kbits/s dup=0 drop=4 speed=0.504x    frame= 5441 fps= 15 q=32.0 Lsize=   20067kB time=00:03:02.83 bitrate= 899.1kbits/s dup=0 drop=4 speed=0.505x    
video:17142kB audio:2736kB subtitle:0kB other streams:0kB global headers:0kB muxing overhead: 0.951195%
[libx264 @ 0x564009a05840] frame I:47    Avg QP:18.52  size: 17446
[libx264 @ 0x564009a05840] frame P:2342  Avg QP:22.63  size:  4744
[libx264 @ 0x564009a05840] frame B:3052  Avg QP:22.30  size:  1842
[libx264 @ 0x564009a05840] consecutive B-frames: 13.5% 27.5% 23.4% 35.7%
[libx264 @ 0x564009a05840] mb I  I16..4: 49.0% 42.1%  9.0%
[libx264 @ 0x564009a05840] mb P  I16..4: 10.2% 12.9%  0.3%  P16..4: 23.7%  2.8%  0.7%  0.0%  0.0%    skip:49.5%
[libx264 @ 0x564009a05840] mb B  I16..4:  2.4%  1.5%  0.0%  B16..8: 16.5%  1.4%  0.0%  direct: 3.5%  skip:74.7%  L0:46.1% L1:52.1% BI: 1.9%
[libx264 @ 0x564009a05840] 8x8 transform intra:51.3% inter:83.1%
[libx264 @ 0x564009a05840] coded y,uvDC,uvAC intra: 11.1% 24.8% 0.8% inter: 2.3% 5.0% 0.0%
[libx264 @ 0x564009a05840] i16 v,h,dc,p: 26% 29% 16% 29%
[libx264 @ 0x564009a05840] i8 v,h,dc,ddl,ddr,vr,hd,vl,hu: 30% 20% 39%  1%  2%  2%  2%  1%  2%
[libx264 @ 0x564009a05840] i4 v,h,dc,ddl,ddr,vr,hd,vl,hu: 26% 18% 21%  5%  8%  6%  8%  4%  4%
[libx264 @ 0x564009a05840] i8c dc,h,v,p: 67% 17% 13%  2%
[libx264 @ 0x564009a05840] Weighted P-Frames: Y:4.5% UV:0.5%
[libx264 @ 0x564009a05840] ref P L0: 80.3% 19.7%
[libx264 @ 0x564009a05840] ref B L0: 83.9% 16.1%
[libx264 @ 0x564009a05840] ref B L1: 98.0%  2.0%
[libx264 @ 0x564009a05840] kb/s:767.79
[aac @ 0x56400994ccc0] Qavg: 4954.503
